<svg width="360" height="192" viewBox="0 0 360 192" fill="none" xmlns="http://www.w3.org/2000/svg">
<g opacity="0.68">
<path opacity="0.68" d="M0.246119 91.0194C-2.6489 91.0194 -5 88.4375 -5 85.2488V12.5527C-5 9.36398 -2.6489 6.79178 0.246119 6.79178C3.14991 6.79178 5.49224 9.37361 5.49224 12.5527V85.2488C5.50101 88.4375 3.14991 91.0194 0.246119 91.0194Z" fill="#9447C8"/>
<path opacity="0.68" d="M30.6789 91.0194C27.7751 91.0194 25.4328 88.4375 25.4328 85.2584V5.76096C25.4328 2.5722 27.7839 0 30.6789 0C33.5827 0 35.925 2.58184 35.925 5.76096V85.2488C35.925 88.4375 33.5739 91.0194 30.6789 91.0194Z" fill="#9447C8"/>
<path opacity="0.68" d="M61.1028 91.0194C58.1991 91.0194 55.8567 88.4375 55.8567 85.2584V26.4927C55.8567 23.304 58.2078 20.7318 61.1028 20.7318C64.0066 20.7318 66.349 23.3136 66.349 26.4927V85.2584C66.3577 88.4375 64.0066 91.0194 61.1028 91.0194Z" fill="#9447C8"/>
<path opacity="0.68" d="M91.5268 91.0194C88.623 91.0194 86.2807 88.4375 86.2807 85.2584V49.7774C86.2807 46.5887 88.6318 44.0164 91.5268 44.0164C94.4306 44.0164 96.7729 46.5983 96.7729 49.7774V85.2488C96.7817 88.4375 94.4306 91.0194 91.5268 91.0194Z" fill="#9447C8"/>
<path opacity="0.68" d="M121.96 91.0194C119.056 91.0194 116.713 88.4375 116.713 85.2584V73.2741C116.713 70.0853 119.065 67.5131 121.96 67.5131C124.863 67.5131 127.206 70.0949 127.206 73.2741V85.2488C127.206 88.4375 124.855 91.0194 121.96 91.0194Z" fill="#9447C8"/>
<path opacity="0.68" d="M152.384 91.0194C149.48 91.0194 147.137 88.4375 147.137 85.2584V69.7674C147.137 66.5786 149.489 64.0064 152.384 64.0064C155.287 64.0064 157.63 66.5883 157.63 69.7674V85.2584C157.63 88.4375 155.279 91.0194 152.384 91.0194Z" fill="#9447C8"/>
<path opacity="0.68" d="M334.822 91.0194C337.726 91.0194 340.068 88.4375 340.068 85.2584V19.884C340.068 16.6952 337.717 14.123 334.822 14.123C331.918 14.123 329.576 16.7049 329.576 19.884V85.2488C329.576 88.4375 331.927 91.0194 334.822 91.0194Z" fill="#9447C8"/>
<path opacity="0.68" d="M304.398 91.0194C307.302 91.0194 309.644 88.4375 309.644 85.2584V38.4096C309.644 35.2209 307.293 32.6487 304.398 32.6487C301.494 32.6487 299.152 35.2305 299.152 38.4096V85.2584C299.143 88.4375 301.494 91.0194 304.398 91.0194Z" fill="#9447C8"/>
<path opacity="0.68" d="M273.974 91.0194C276.878 91.0194 279.22 88.4375 279.22 85.2584V51.4537C279.22 48.2649 276.869 45.6927 273.974 45.6927C271.07 45.6927 268.728 48.2746 268.728 51.4537V85.2488C268.719 88.4375 271.07 91.0194 273.974 91.0194Z" fill="#9447C8"/>
<path opacity="0.68" d="M243.541 91.0194C246.445 91.0194 248.788 88.4375 248.788 85.2584V67.9562C248.788 64.7675 246.436 62.1953 243.541 62.1953C240.638 62.1953 238.295 64.7771 238.295 67.9562V85.2488C238.295 88.4375 240.646 91.0194 243.541 91.0194Z" fill="#9447C8"/>
<path opacity="0.68" d="M213.117 91.0194C216.021 91.0194 218.364 88.4375 218.364 85.2584V81.3278C218.364 78.1391 216.012 75.5669 213.117 75.5669C210.214 75.5669 207.871 78.1487 207.871 81.3278V85.2584C207.871 88.4375 210.214 91.0194 213.117 91.0194Z" fill="#9447C8"/>
<path opacity="0.68" d="M182.693 91.0194C185.597 91.0194 187.94 88.4375 187.94 85.2584V74.5361C187.94 71.3473 185.589 68.7751 182.693 68.7751C179.79 68.7751 177.447 71.357 177.447 74.5361V85.2584C177.439 88.4375 179.79 91.0194 182.693 91.0194Z" fill="#9447C8"/>
<path opacity="0.68" d="M0.246119 100.99C-2.65767 100.99 -5 103.572 -5 106.751V179.447C-5 182.636 -2.6489 185.208 0.246119 185.208C3.14991 185.208 5.49224 182.626 5.49224 179.447V106.751C5.50101 103.572 3.14991 100.99 0.246119 100.99Z" fill="#9447C8"/>
<path opacity="0.68" d="M30.6789 100.99C27.7751 100.99 25.4328 103.572 25.4328 106.751V186.239C25.4328 189.428 27.7839 192 30.6789 192C33.5827 192 35.925 189.418 35.925 186.239V106.751C35.925 103.572 33.5739 100.99 30.6789 100.99Z" fill="#9447C8"/>
<path opacity="0.68" d="M61.1028 100.99C58.1991 100.99 55.8567 103.572 55.8567 106.751V165.517C55.8567 168.706 58.2078 171.278 61.1028 171.278C64.0066 171.278 66.349 168.696 66.349 165.517V106.751C66.3577 103.572 64.0066 100.99 61.1028 100.99Z" fill="#9447C8"/>
<path opacity="0.68" d="M91.5268 100.99C88.623 100.99 86.2807 103.572 86.2807 106.751V142.223C86.2807 145.411 88.6318 147.984 91.5268 147.984C94.4306 147.984 96.7729 145.402 96.7729 142.223V106.751C96.7817 103.572 94.4306 100.99 91.5268 100.99Z" fill="#9447C8"/>
<path opacity="0.68" d="M121.96 100.99C119.056 100.99 116.713 103.572 116.713 106.751V118.726C116.713 121.915 119.065 124.487 121.96 124.487C124.863 124.487 127.206 121.905 127.206 118.726V106.751C127.206 103.572 124.855 100.99 121.96 100.99Z" fill="#9447C8"/>
<path opacity="0.68" d="M152.384 100.99C149.48 100.99 147.137 103.572 147.137 106.751V122.242C147.137 125.431 149.489 128.003 152.384 128.003C155.287 128.003 157.63 125.421 157.63 122.242V106.751C157.63 103.572 155.279 100.99 152.384 100.99Z" fill="#9447C8"/>
<path opacity="0.68" d="M334.822 100.99C337.726 100.99 340.068 103.572 340.068 106.751V172.116C340.068 175.305 337.717 177.877 334.822 177.877C331.918 177.877 329.576 175.295 329.576 172.116V106.751C329.576 103.572 331.927 100.99 334.822 100.99Z" fill="#9447C8"/>
<path opacity="0.68" d="M304.398 100.99C307.302 100.99 309.644 103.572 309.644 106.751V153.6C309.644 156.789 307.293 159.361 304.398 159.361C301.494 159.361 299.152 156.779 299.152 153.6V106.751C299.143 103.572 301.494 100.99 304.398 100.99Z" fill="#9447C8"/>
<path opacity="0.68" d="M273.974 100.99C276.878 100.99 279.22 103.572 279.22 106.751V140.546C279.22 143.735 276.869 146.307 273.974 146.307C271.07 146.307 268.728 143.725 268.728 140.546V106.751C268.719 103.572 271.07 100.99 273.974 100.99Z" fill="#9447C8"/>
<path opacity="0.68" d="M243.541 100.99C246.445 100.99 248.788 103.572 248.788 106.751V124.044C248.788 127.233 246.436 129.805 243.541 129.805C240.638 129.805 238.295 127.223 238.295 124.044V106.751C238.295 103.572 240.646 100.99 243.541 100.99Z" fill="#9447C8"/>
<path opacity="0.68" d="M213.117 100.99C216.021 100.99 218.364 103.572 218.364 106.751V110.682C218.364 113.871 216.012 116.443 213.117 116.443C210.214 116.443 207.871 113.861 207.871 110.682V106.751C207.871 103.572 210.214 100.99 213.117 100.99Z" fill="#9447C8"/>
<path opacity="0.68" d="M182.693 100.99C185.597 100.99 187.94 103.572 187.94 106.751V117.474C187.94 120.662 185.589 123.235 182.693 123.235C179.79 123.235 177.447 120.653 177.447 117.474V106.751C177.439 103.572 179.79 100.99 182.693 100.99Z" fill="#9447C8"/>
<g opacity="0.44">
<path opacity="0.44" d="M16.5898 91.0194C13.686 91.0194 11.3437 88.4375 11.3437 85.2584V19.884C11.3437 16.6952 13.6948 14.123 16.5898 14.123C19.4936 14.123 21.8359 16.7049 21.8359 19.884V85.2488C21.8359 88.4375 19.4936 91.0194 16.5898 91.0194Z" fill="#9447C8"/>
<path opacity="0.44" d="M47.0138 91.0194C44.11 91.0194 41.7677 88.4375 41.7677 85.2584V38.4096C41.7677 35.2209 44.1188 32.6487 47.0138 32.6487C49.9176 32.6487 52.2599 35.2305 52.2599 38.4096V85.2584C52.2687 88.4375 49.9176 91.0194 47.0138 91.0194Z" fill="#9447C8"/>
<path opacity="0.44" d="M77.4465 91.0194C74.5427 91.0194 72.2004 88.4375 72.2004 85.2584V51.4537C72.2004 48.2649 74.5515 45.6927 77.4465 45.6927C80.3503 45.6927 82.6926 48.2746 82.6926 51.4537V85.2488C82.6926 88.4375 80.3415 91.0194 77.4465 91.0194Z" fill="#9447C8"/>
<path opacity="0.44" d="M107.871 91.0194C104.967 91.0194 102.624 88.4375 102.624 85.2584V67.9562C102.624 64.7675 104.975 62.1953 107.871 62.1953C110.774 62.1953 113.117 64.7771 113.117 67.9562V85.2488C113.117 88.4375 110.766 91.0194 107.871 91.0194Z" fill="#9447C8"/>
<path opacity="0.44" d="M138.294 91.0194C135.391 91.0194 133.048 88.4375 133.048 85.2584V81.3278C133.048 78.1391 135.399 75.5669 138.294 75.5669C141.198 75.5669 143.541 78.1487 143.541 81.3278V85.2584C143.549 88.4375 141.198 91.0194 138.294 91.0194Z" fill="#9447C8"/>
<path opacity="0.44" d="M168.727 91.0194C165.823 91.0194 163.481 88.4375 163.481 85.2584V74.5361C163.481 71.3473 165.832 68.7751 168.727 68.7751C171.631 68.7751 173.973 71.357 173.973 74.5361V85.2584C173.973 88.4375 171.622 91.0194 168.727 91.0194Z" fill="#9447C8"/>
<path opacity="0.44" d="M351.166 91.0194C354.07 91.0194 356.412 88.4375 356.412 85.2584V12.5527C356.412 9.36398 354.061 6.79178 351.166 6.79178C348.262 6.79178 345.92 9.37361 345.92 12.5527V85.2488C345.911 88.4375 348.262 91.0194 351.166 91.0194Z" fill="#9447C8"/>
<path opacity="0.44" d="M320.733 91.0194C323.637 91.0194 325.979 88.4375 325.979 85.2584V5.76096C325.979 2.5722 323.628 0 320.733 0C317.829 0 315.487 2.58184 315.487 5.76096V85.2488C315.487 88.4375 317.838 91.0194 320.733 91.0194Z" fill="#9447C8"/>
<path opacity="0.44" d="M290.309 91.0194C293.213 91.0194 295.555 88.4375 295.555 85.2584V26.4927C295.555 23.304 293.204 20.7318 290.309 20.7318C287.405 20.7318 285.063 23.3136 285.063 26.4927V85.2584C285.063 88.4375 287.414 91.0194 290.309 91.0194Z" fill="#9447C8"/>
<path opacity="0.44" d="M259.885 91.0194C262.789 91.0194 265.131 88.4375 265.131 85.2584V49.7774C265.131 46.5887 262.78 44.0164 259.885 44.0164C256.981 44.0164 254.639 46.5983 254.639 49.7774V85.2488C254.63 88.4375 256.981 91.0194 259.885 91.0194Z" fill="#9447C8"/>
<path opacity="0.44" d="M229.461 91.0194C232.365 91.0194 234.707 88.4375 234.707 85.2584V73.2741C234.707 70.0853 232.356 67.5131 229.461 67.5131C226.557 67.5131 224.215 70.0949 224.215 73.2741V85.2488C224.206 88.4375 226.557 91.0194 229.461 91.0194Z" fill="#9447C8"/>
<path opacity="0.44" d="M199.028 91.0194C201.932 91.0194 204.275 88.4375 204.275 85.2584V69.7674C204.275 66.5786 201.923 64.0064 199.028 64.0064C196.125 64.0064 193.782 66.5883 193.782 69.7674V85.2584C193.782 88.4375 196.133 91.0194 199.028 91.0194Z" fill="#9447C8"/>
<path opacity="0.44" d="M16.5898 100.99C13.686 100.99 11.3437 103.572 11.3437 106.751V172.116C11.3437 175.305 13.6948 177.877 16.5898 177.877C19.4936 177.877 21.8359 175.295 21.8359 172.116V106.751C21.8359 103.572 19.4936 100.99 16.5898 100.99Z" fill="#9447C8"/>
<path opacity="0.44" d="M47.0138 100.99C44.11 100.99 41.7677 103.572 41.7677 106.751V153.6C41.7677 156.789 44.1188 159.361 47.0138 159.361C49.9176 159.361 52.2599 156.779 52.2599 153.6V106.751C52.2687 103.572 49.9176 100.99 47.0138 100.99Z" fill="#9447C8"/>
<path opacity="0.44" d="M77.4465 100.99C74.5427 100.99 72.2004 103.572 72.2004 106.751V140.546C72.2004 143.735 74.5515 146.307 77.4465 146.307C80.3503 146.307 82.6926 143.725 82.6926 140.546V106.751C82.6926 103.572 80.3415 100.99 77.4465 100.99Z" fill="#9447C8"/>
<path opacity="0.44" d="M107.871 100.99C104.967 100.99 102.624 103.572 102.624 106.751V124.044C102.624 127.233 104.975 129.805 107.871 129.805C110.774 129.805 113.117 127.223 113.117 124.044V106.751C113.117 103.572 110.766 100.99 107.871 100.99Z" fill="#9447C8"/>
<path opacity="0.44" d="M138.294 100.99C135.391 100.99 133.048 103.572 133.048 106.751V110.682C133.048 113.871 135.399 116.443 138.294 116.443C141.198 116.443 143.541 113.861 143.541 110.682V106.751C143.549 103.572 141.198 100.99 138.294 100.99Z" fill="#9447C8"/>
<path opacity="0.44" d="M168.727 100.99C165.823 100.99 163.481 103.572 163.481 106.751V117.474C163.481 120.662 165.832 123.235 168.727 123.235C171.631 123.235 173.973 120.653 173.973 117.474V106.751C173.973 103.572 171.622 100.99 168.727 100.99Z" fill="#9447C8"/>
<path opacity="0.44" d="M351.166 100.99C354.07 100.99 356.412 103.572 356.412 106.751V179.447C356.412 182.636 354.061 185.208 351.166 185.208C348.262 185.208 345.92 182.626 345.92 179.447V106.751C345.911 103.572 348.262 100.99 351.166 100.99Z" fill="#9447C8"/>
<path opacity="0.44" d="M320.733 100.99C323.637 100.99 325.979 103.572 325.979 106.751V186.239C325.979 189.428 323.628 192 320.733 192C317.829 192 315.487 189.418 315.487 186.239V106.751C315.487 103.572 317.838 100.99 320.733 100.99Z" fill="#9447C8"/>
<path opacity="0.44" d="M290.309 100.99C293.213 100.99 295.555 103.572 295.555 106.751V165.517C295.555 168.706 293.204 171.278 290.309 171.278C287.405 171.278 285.063 168.696 285.063 165.517V106.751C285.063 103.572 287.414 100.99 290.309 100.99Z" fill="#9447C8"/>
<path opacity="0.44" d="M259.885 100.99C262.789 100.99 265.131 103.572 265.131 106.751V142.223C265.131 145.411 262.78 147.984 259.885 147.984C256.981 147.984 254.639 145.402 254.639 142.223V106.751C254.63 103.572 256.981 100.99 259.885 100.99Z" fill="#9447C8"/>
<path opacity="0.44" d="M229.461 100.99C232.365 100.99 234.707 103.572 234.707 106.751V118.726C234.707 121.915 232.356 124.487 229.461 124.487C226.557 124.487 224.215 121.905 224.215 118.726V106.751C224.206 103.572 226.557 100.99 229.461 100.99Z" fill="#9447C8"/>
<path opacity="0.44" d="M199.028 100.99C201.932 100.99 204.275 103.572 204.275 106.751V122.242C204.275 125.431 201.923 128.003 199.028 128.003C196.125 128.003 193.782 125.421 193.782 122.242V106.751C193.782 103.572 196.133 100.99 199.028 100.99Z" fill="#9447C8"/>
</g>
</g>
</svg>
