<svg width="30" height="27" viewBox="0 0 30 27" fill="none" xmlns="http://www.w3.org/2000/svg">
<g clip-path="url(#clip0)">
<path d="M21.9824 2.0158e-06C21.1567 2.0158e-06 20.3621 0.127265 19.6141 0.35696C17.6368 0.971549 15.9886 2.3342 14.9953 4.10968C13.6234 1.66374 11.0067 0.00931397 8.00517 0.0124179C7.17952 0.0124179 6.38179 0.139681 5.63063 0.37248C2.36524 1.38748 -0.00310094 4.43249 3.04752e-06 8.03001C0.00621101 16.1593 11.7672 24.3756 14.4677 26.1542C14.657 26.2845 14.8432 26.4149 15.0326 26.5484C15.2157 26.4149 15.3958 26.2814 15.5789 26.148C18.2949 24.357 30.0093 16.1624 30 8.00518C29.9969 3.57889 26.4056 -0.00310197 21.9824 2.0158e-06ZM18.9374 13.5986L13.8282 17.8727C13.3906 18.239 12.7263 17.9286 12.7263 17.3575V8.80911C12.7263 8.23797 13.3906 7.92758 13.8282 8.29385L18.9374 12.568C19.2602 12.835 19.2602 13.3285 18.9374 13.5986Z" fill="#BDBDBD"/>
</g>
<defs>
<clipPath id="clip0">
<rect width="30" height="26.5453" fill="white"/>
</clipPath>
</defs>
</svg>
