<svg width="36" height="35" viewBox="0 0 36 35" fill="none" xmlns="http://www.w3.org/2000/svg">
<path d="M33.1702 20C33.1702 18.6187 32.0514 17.5 30.6702 17.5C29.2889 17.5 28.1702 18.6187 28.1702 20C28.1702 20.2812 28.228 20.5477 28.3124 20.8016L18.1702 25.3086L8.02798 20.8008C8.11235 20.5477 8.17017 20.2812 8.17017 20C8.17017 18.6187 7.05142 17.5 5.67017 17.5C4.28892 17.5 3.17017 18.6187 3.17017 20C1.78892 20 0.670166 21.1187 0.670166 22.5C0.670166 23.8813 1.78892 25 3.17017 25C4.10767 25 4.91626 24.4773 5.3436 23.7125L13.5522 27.3609L10.3436 28.7875C9.91626 28.0227 9.10767 27.5 8.17017 27.5C6.78892 27.5 5.67017 28.6187 5.67017 30C5.67017 31.3813 6.78892 32.5 8.17017 32.5C8.17017 33.8812 9.28892 35 10.6702 35C12.0514 35 13.1702 33.8812 13.1702 32.5C13.1702 32.2188 13.1124 31.9523 13.028 31.6984L30.9983 23.7125C31.4241 24.4773 32.2327 25 33.1702 25C34.5514 25 35.6702 23.8813 35.6702 22.5C35.6702 21.1187 34.5514 20 33.1702 20ZM28.1702 27.5C27.2327 27.5 26.4241 28.0227 25.9967 28.7875L24.3264 28.0453L19.7092 30.0977L23.3131 31.6992C23.228 31.9531 23.1709 32.2195 23.1709 32.5008C23.1709 33.882 24.2897 35.0008 25.6709 35.0008C27.0522 35.0008 28.1709 33.882 28.1709 32.5008C29.5522 32.5008 30.6709 31.382 30.6709 30.0008C30.6709 28.6195 29.5514 27.5 28.1702 27.5ZM18.1702 0C12.6475 0 8.17017 4.47734 8.17017 10V14.9109C8.17017 15.7469 8.58735 16.5281 9.28423 16.9906L11.9202 18.75V21.25H14.4202V18.75H16.9202V21.25H19.4202V18.75H21.9202V21.25H24.4202V18.75L27.0561 16.9922C27.7522 16.5281 28.1702 15.7469 28.1702 14.9125V10C28.1702 4.47734 23.6928 0 18.1702 0ZM13.1702 15C11.7905 15 10.6702 13.8797 10.6702 12.5C10.6702 11.1187 11.7905 10 13.1702 10C14.5514 10 15.6702 11.1187 15.6702 12.5C15.6702 13.8797 14.5514 15 13.1702 15ZM16.9202 16.25C16.9202 14.8687 17.4803 13.75 18.1702 13.75C18.86 13.75 19.4202 14.8687 19.4202 16.25H16.9202ZM23.1702 15C21.7905 15 20.6702 13.8797 20.6702 12.5C20.6702 11.1187 21.7905 10 23.1702 10C24.5514 10 25.6702 11.1187 25.6702 12.5C25.6702 13.8797 24.5514 15 23.1702 15Z" fill="#BDBDBD"/>
</svg>
