<svg width="34" height="33" viewBox="0 0 34 33" fill="none" xmlns="http://www.w3.org/2000/svg">
<path d="M25.2344 2.06987C25.204 2.05513 25.1813 2.0404 25.1585 2.02567C24.3313 1.58371 23.4509 1.2375 22.5478 0.935491L22.1379 0.802902C20.5138 0.302009 18.7911 0 17 0C7.61205 0 0 7.38817 0 16.5C0 22.7096 3.53661 28.1089 8.75804 30.9228C8.78839 30.9375 8.81116 30.9596 8.84152 30.9743C9.66875 31.4163 10.5491 31.7625 11.4522 32.0645L11.8621 32.1971C13.4862 32.698 15.2013 33 17 33C26.3879 33 34 25.6118 34 16.5C34 10.2904 30.4634 4.88371 25.2344 2.06987V2.06987ZM17 29.0518C16.2942 29.0518 15.6036 28.9855 14.9357 28.875C14.192 28.7571 13.471 28.573 12.7728 28.3373C12.6286 28.2931 12.4844 28.2489 12.3478 28.1973C11.8545 28.0132 11.3687 27.8069 10.9058 27.5638C6.83795 25.4498 4.06786 21.2879 4.06786 16.4926C4.06786 13.7525 5.00893 11.2333 6.54955 9.17076L24.5513 26.6431C22.4188 28.1384 19.8232 29.0518 17 29.0518V29.0518ZM27.458 23.8219L9.45625 6.34955C11.5813 4.86161 14.1692 3.94821 17 3.94821C17.7058 3.94821 18.3888 4.01451 19.0643 4.125C19.808 4.24286 20.529 4.42701 21.2272 4.66272C21.3638 4.70692 21.508 4.75112 21.6522 4.80268C22.1228 4.97946 22.5781 5.17098 23.0183 5.39933C27.1317 7.49866 29.9397 11.6826 29.9397 16.5074C29.9321 19.2475 28.9911 21.7594 27.458 23.8219V23.8219Z" fill="#BDBDBD"/>
</svg>
