<svg width="45" height="37" viewBox="0 0 45 37" fill="none" xmlns="http://www.w3.org/2000/svg">
<path d="M32 18.5C32 19.8806 31.1045 21 30 21C28.8955 21 28 19.8806 28 18.5C28 17.1194 28.8955 16 30 16C31.1045 16 32 17.1194 32 18.5Z" fill="#CF9BFF"/>
<path d="M14 16C15.1279 17.4221 15.1279 19.5779 14 21H28C26.8721 19.5779 26.8721 17.4221 28 16H14Z" fill="#CF9BFF"/>
<path d="M14 18.5C14 19.8806 13.1045 21 12 21C10.8955 21 10 19.8806 10 18.5C10 17.1194 10.8955 16 12 16C13.1045 16 14 17.1194 14 18.5Z" fill="#CF9BFF"/>
<path d="M35.7826 6H6.21739C5.54518 6.00079 5.00068 6.63201 5 7.41129V29.5887C5.00068 30.368 5.54518 30.9992 6.21739 31H11.982L13.5768 27.3021C13.6651 27.0973 13.8458 26.9677 14.0435 26.9677H27.9565C28.1542 26.9677 28.3349 27.0973 28.4232 27.3021L30.018 31H35.7826C36.4548 30.9992 36.9993 30.368 37 29.5887V7.41129C36.9993 6.63201 36.4548 6.00079 35.7826 6ZM6.76393 9.1628C6.23573 9.1628 5.8074 8.66625 5.8074 8.05393C5.8074 7.44161 6.23573 6.94506 6.76393 6.94506C7.29246 6.94506 7.72045 7.44161 7.72045 8.05393C7.72011 8.66586 7.29212 9.16201 6.76393 9.1628ZM29.9484 22.129H12.0516C10.3227 22.129 8.9212 20.5043 8.9212 18.5C8.9212 16.4957 10.3227 14.871 12.0516 14.871H29.9484C31.6773 14.871 33.0788 16.4957 33.0788 18.5C33.0788 20.5043 31.6773 22.129 29.9484 22.129ZM35.1236 9.1628C34.5954 9.1628 34.1671 8.66625 34.1671 8.05393C34.1671 7.44161 34.5954 6.94506 35.1236 6.94506C35.6518 6.94506 36.0802 7.44161 36.0802 8.05393C36.0795 8.66586 35.6518 9.16201 35.1236 9.1628Z" fill="#CF9BFF"/>
<path d="M14.2404 28L13 31H29L27.7596 28H14.2404Z" fill="#CF9BFF"/>
<circle cx="36.6031" cy="7.60309" r="7.52157" transform="rotate(-0.624452 36.6031 7.60309)" fill="#CF9BFF"/>
<path d="M36.5621 3.84255L36.6102 8.25142C36.3618 8.11113 36.0769 8.02804 35.7713 8.03137C34.8488 8.04143 34.1088 8.79778 34.1188 9.72029C34.1289 10.6428 34.8853 11.3828 35.8078 11.3728C36.7303 11.3627 37.4703 10.6064 37.4603 9.68387L37.4147 5.50416L39.0874 5.48593L39.0692 3.81522L36.5621 3.84255Z" fill="white"/>
</svg>
