<svg width="26" height="26" viewBox="0 0 26 26" fill="none" xmlns="http://www.w3.org/2000/svg">
<path d="M20.4699 5.53008C16.3465 1.40664 9.65859 1.40664 5.53008 5.53008C1.40156 9.65352 1.40664 16.3414 5.53008 20.4699C9.65352 24.5934 16.3414 24.5934 20.4699 20.4699C24.5934 16.3465 24.5934 9.65352 20.4699 5.53008ZM19.632 8.23164C20.018 8.0082 20.5207 8.14024 20.7441 8.53125C20.9676 8.91719 20.8355 9.41992 20.4445 9.64336C20.0586 9.8668 19.5559 9.73477 19.3324 9.34375C19.109 8.95781 19.241 8.45508 19.632 8.23164ZM4.0625 13C4.0625 12.5531 4.42812 12.1875 4.875 12.1875C5.32187 12.1875 5.6875 12.5531 5.6875 13C5.6875 13.4469 5.32187 13.8125 4.875 13.8125C4.42812 13.8125 4.0625 13.4469 4.0625 13ZM6.36797 17.7684C5.98203 17.9918 5.4793 17.8598 5.25586 17.4688C5.03242 17.0828 5.16445 16.5801 5.55547 16.3566C5.94141 16.1332 6.44414 16.2652 6.66758 16.6563C6.89102 17.0422 6.75898 17.5449 6.36797 17.7684ZM6.66758 9.34375C6.44414 9.72969 5.94648 9.8668 5.55547 9.64336C5.16953 9.41992 5.03242 8.92227 5.25586 8.53125C5.4793 8.14531 5.97695 8.0082 6.36797 8.23164C6.75898 8.45508 6.89102 8.95781 6.66758 9.34375ZM8.53125 5.26094C8.91719 5.0375 9.41992 5.16953 9.64336 5.56055C9.8668 5.94648 9.73477 6.44922 9.34375 6.67266C8.95273 6.89609 8.45508 6.76406 8.23164 6.37305C8.0082 5.98203 8.14531 5.48438 8.53125 5.26094ZM8.13516 10.8824L8.92734 9.53164L13.7617 12.4211V19.5H12.1875V13.2336L8.13516 10.8824ZM9.64336 20.4445C9.41992 20.8305 8.92227 20.9676 8.53125 20.7441C8.14023 20.5207 8.0082 20.0231 8.23164 19.632C8.45508 19.2461 8.95273 19.109 9.34375 19.3324C9.72969 19.5559 9.8668 20.0535 9.64336 20.4445ZM13 21.9375C12.5531 21.9375 12.1875 21.5719 12.1875 21.125C12.1875 20.6781 12.5531 20.3125 13 20.3125C13.4469 20.3125 13.8125 20.6781 13.8125 21.125C13.8125 21.5719 13.4469 21.9375 13 21.9375ZM13 5.6875C12.5531 5.6875 12.1875 5.32188 12.1875 4.875C12.1875 4.42813 12.5531 4.0625 13 4.0625C13.4469 4.0625 13.8125 4.42813 13.8125 4.875C13.8125 5.32188 13.4469 5.6875 13 5.6875ZM17.4687 20.7391C17.0828 20.9625 16.5801 20.8305 16.3566 20.4395C16.1332 20.0535 16.2652 19.5508 16.6562 19.3273C17.0422 19.1039 17.5449 19.2359 17.7684 19.627C17.9918 20.018 17.8547 20.5156 17.4687 20.7391ZM17.7684 6.36797C17.5449 6.75391 17.0473 6.89102 16.6562 6.66758C16.2652 6.44414 16.1332 5.94648 16.3566 5.55547C16.5801 5.16953 17.0777 5.03242 17.4687 5.25586C17.8598 5.4793 17.9918 5.98203 17.7684 6.36797ZM20.7391 17.4688C20.5156 17.8547 20.018 17.9918 19.627 17.7684C19.241 17.5449 19.1039 17.0473 19.3273 16.6563C19.5508 16.2703 20.0484 16.1332 20.4395 16.3566C20.8305 16.5801 20.9625 17.0828 20.7391 17.4688ZM21.125 13.8125C20.6781 13.8125 20.3125 13.4469 20.3125 13C20.3125 12.5531 20.6781 12.1875 21.125 12.1875C21.5719 12.1875 21.9375 12.5531 21.9375 13C21.9375 13.4469 21.5719 13.8125 21.125 13.8125Z" fill="#E0E0E0"/>
</svg>
