<svg width="28" height="27" viewBox="0 0 28 27" fill="none" xmlns="http://www.w3.org/2000/svg">
<path d="M14 0.09375C6.37656 0.09375 0.1875 6.10078 0.1875 13.5C0.1875 20.8992 6.37656 26.9062 14 26.9062C21.6234 26.9062 27.8125 20.8992 27.8125 13.5C27.8125 6.10078 21.6234 0.09375 14 0.09375ZM14 19.5328C10.5602 19.5328 7.78437 16.8387 7.78437 13.5C7.78437 10.1613 10.5602 7.46719 14 7.46719C17.4398 7.46719 20.2156 10.1613 20.2156 13.5C20.2156 16.8387 17.4398 19.5328 14 19.5328ZM14 12.1594C13.243 12.1594 12.6187 12.7652 12.6187 13.5C12.6187 14.2348 13.243 14.8406 14 14.8406C14.757 14.8406 15.3812 14.2348 15.3812 13.5C15.3812 12.7652 14.757 12.1594 14 12.1594V12.1594Z" fill="#BDBDBD"/>
</svg>
