<svg width="25" height="26" viewBox="0 0 25 26" fill="none" xmlns="http://www.w3.org/2000/svg">
<path d="M0.488708 22.8045C0.488708 21.4172 1.30074 20.2669 3.16164 20.2669H21.8722C23.6992 20.2669 24.5451 21.3834 24.5451 22.8045C24.5451 24.2255 23.7331 25.3421 21.8722 25.3421H3.16164C1.30074 25.3421 0.488708 24.1917 0.488708 22.8045ZM14.8684 1.59017L23.7669 12.9586C25.188 14.7857 23.8346 17.3571 21.4662 17.3571H3.70299C1.33457 17.3571 -0.0188102 14.7518 1.40224 12.9586L10.3007 1.59017C10.5714 1.25183 10.9098 0.981152 11.3158 0.778144C11.7218 0.575137 12.1616 0.473633 12.6015 0.473633C13.0413 0.473633 13.4812 0.575137 13.8872 0.778144C14.2594 0.947317 14.5977 1.21799 14.8684 1.59017Z" fill="url(#paint0_linear)"/>
<defs>
<linearGradient id="paint0_linear" x1="12.5169" y1="0.473633" x2="12.5169" y2="25.3421" gradientUnits="userSpaceOnUse">
<stop stop-color="#F5DE79"/>
<stop offset="0.359375" stop-color="#F2C94C"/>
<stop offset="1" stop-color="#E49062"/>
</linearGradient>
</defs>
</svg>
