<svg id="Layer_1" data-name="Layer 1" xmlns="http://www.w3.org/2000/svg" viewBox="0 0 45 45"><path d="M25.75,10a2.78,2.78,0,0,1,1.75.62L39.6,20a3.13,3.13,0,0,1,.9,1.1,3.71,3.71,0,0,1,.4,1.4,3.19,3.19,0,0,1-.3,1.4,3.13,3.13,0,0,1-.9,1.1L27.6,34.4A2.91,2.91,0,0,1,22.9,32V25L10.8,34.3a2.91,2.91,0,0,1-4.7-2.4V13a3,3,0,0,1,3-3,2.78,2.78,0,0,1,1.75.62l12,9.4V13a3,3,0,0,1,2.95-3m0-2a5,5,0,0,0-4.95,5v2.89L12,9a4.71,4.71,0,0,0-3-1,5,5,0,0,0-5,5V31.9a4.91,4.91,0,0,0,7.9,4l8.9-6.84V32a4.91,4.91,0,0,0,7.9,4l12.13-9.42a5.09,5.09,0,0,0,1.46-1.79,5.17,5.17,0,0,0,.51-2.29,5,5,0,0,0-.46-1.95l-.08-.19,0-.08,0-.07A5.09,5.09,0,0,0,40.8,18.4L28.73,9a4.76,4.76,0,0,0-3-1Z"/></svg>