<svg width="36" height="24" viewBox="0 0 36 24" fill="none" xmlns="http://www.w3.org/2000/svg">
<path d="M20.8638 0.235231C20.3638 -0.0635531 19.744 -0.0789147 19.2301 0.196059L7.98846 6.21092V17.5378L19.2294 23.5527C19.7432 23.8277 20.363 23.8131 20.8631 23.5135C21.3616 23.2132 21.668 22.674 21.668 22.0918V1.65695C21.6688 1.07475 21.3623 0.535552 20.8638 0.235231ZM23.9162 7.8669H22.6988V15.8826H23.917C24.8317 15.8826 25.5737 15.1406 25.5737 14.2259V9.52289C25.573 8.60887 24.831 7.8669 23.9162 7.8669ZM5.98607 17.3865C5.98607 16.5363 5.98607 15.6852 5.98607 14.835V6.36223H2.32692C1.41213 6.36223 0.670166 7.1042 0.670166 8.01822V15.7298C0.670166 16.6446 1.41213 17.3865 2.32692 17.3865H2.33307C3.55048 17.3865 4.76789 17.3865 5.98607 17.3865ZM34.5011 10.705H28.802C28.156 10.705 27.6329 11.228 27.6329 11.874C27.6329 12.5199 28.156 13.043 28.802 13.043H34.5011C35.1471 13.043 35.6702 12.5199 35.6702 11.874C35.6709 11.228 35.1479 10.705 34.5011 10.705ZM33.5633 17.8074L27.8641 15.4694C27.2673 15.2213 26.583 15.5093 26.3387 16.1069C26.0929 16.7052 26.3787 17.3881 26.9755 17.6323L32.6746 19.9704C32.8206 20.031 32.9704 20.0579 33.1186 20.0579C33.5787 20.0579 34.0149 19.7852 34.2001 19.3328C34.4458 18.7345 34.1601 18.0517 33.5633 17.8074ZM27.4194 8.36693C27.5677 8.36693 27.7182 8.33927 27.8634 8.27936L33.5625 5.94132C34.1593 5.69707 34.4451 5.01424 34.1993 4.41591C33.955 3.81834 33.2676 3.53031 32.6739 3.7784L26.9747 6.11644C26.3779 6.36069 26.0922 7.04352 26.338 7.64185C26.5231 8.09426 26.9593 8.36693 27.4194 8.36693Z" fill="#BDBDBD"/>
</svg>
