<svg width="89" height="89" viewBox="0 0 89 89" class="ionicon" xmlns="http://www.w3.org/2000/svg">
<path d="M71.5975 8.26123H49.5675V16.5225H65.763L47.3989 34.8693C43.3543 31.9951 38.3976 30.2912 33.045 30.2912C19.3623 30.2912 8.26123 41.3923 8.26123 55.075C8.26123 68.7577 19.3623 79.8587 33.045 79.8587C46.7277 79.8587 57.8287 68.7577 57.8287 55.075C57.8287 49.7224 56.1248 44.7656 53.2506 40.7211L71.5975 22.357V38.5525H79.8587V8.26123H71.5975ZM33.045 71.5975C23.9404 71.5975 16.5225 64.1796 16.5225 55.075C16.5225 45.9704 23.9404 38.5525 33.045 38.5525C42.1496 38.5525 49.5675 45.9704 49.5675 55.075C49.5675 64.1796 42.1496 71.5975 33.045 71.5975Z"/>
</svg>
