<svg width="92" height="89" viewBox="0 0 92 89" class="ionicon" xmlns="http://www.w3.org/2000/svg">
<path d="M71.2594 30.2912C71.2594 16.6085 59.7688 5.50745 45.606 5.50745C31.4432 5.50745 19.9526 16.6085 19.9526 30.2912C19.9526 42.5798 29.1985 52.7687 41.3304 54.7307V63.3362H28.5038V71.5974H41.3304V82.6124H49.8816V71.5974H62.7082V63.3362H49.8816V54.7307C62.0135 52.7687 71.2594 42.5798 71.2594 30.2912ZM28.5038 30.2912C28.5038 21.1866 36.1819 13.7687 45.606 13.7687C55.03 13.7687 62.7082 21.1866 62.7082 30.2912C62.7082 39.3958 55.03 46.8137 45.606 46.8137C36.1819 46.8137 28.5038 39.3958 28.5038 30.2912Z"/>
</svg>
