<svg width="55" height="55" viewBox="0 0 55 55" class="ionicon" xmlns="http://www.w3.org/2000/svg">
<g clip-path="url(#clip0)">
<path d="M27.6022 54.3047C24.0649 54.3205 20.5594 53.6363 17.2874 52.2915C14.0154 50.9467 11.0414 48.9677 8.53676 46.4686C6.03206 43.9695 4.04603 40.9995 2.69294 37.7295C1.33984 34.4595 0.646399 30.9541 0.652506 27.415C0.652506 12.5141 12.8195 0.147442 27.4364 0.294884C42.7257 0.451541 54.5058 12.0073 54.6623 27.0187C54.6989 30.5943 54.0255 34.1416 52.6812 37.4547C51.3369 40.7679 49.3485 43.781 46.8312 46.3193C44.3139 48.8576 41.3179 50.8705 38.017 52.2413C34.7162 53.6121 31.1761 54.3134 27.6022 54.3047ZM46.4559 23.6552C45.4059 14.2374 36.2415 6.98506 26.5522 7.66698C17.0747 8.30283 8.88661 15.7486 9.0524 23.6829L46.4559 23.6552ZM8.94187 31.7C10.4984 40.8414 18.6957 47.2091 28.0166 47.034C37.1073 46.8681 44.9822 40.3899 46.2717 31.7H8.94187Z"/>
</g>
<defs>
<clipPath id="clip0">
<rect x="0.652466" y="0.295044" width="54.0098" height="54.0098"/>
</clipPath>
</defs>
</svg>
