<svg width="51" height="80" viewBox="0 0 51 80" class="ionicon" xmlns="http://www.w3.org/2000/svg">
<g clip-path="url(#clip0)">
<path d="M22.0423 29.7023V20.4121L13.4928 24.8377L9.95336 19.1115L17.8445 14.289L10.056 9.31455C11.1845 7.39738 12.1677 5.73359 13.3817 3.69819L21.8799 7.92102C22.0936 5.38732 22.2817 3.27591 22.4955 0.868896H28.6853C28.9161 2.96342 29.1469 4.99037 29.4462 7.5663L37.192 3.67285L40.6118 9.29766L32.96 14.2215L40.5007 19.0439L37.3887 24.8208L29.3863 20.826V30.0317C37.9358 31.9404 44.6215 36.518 48.3576 44.6427C50.7071 49.6659 51.2032 55.3429 49.7598 60.6894C48.3757 66.3245 45.0311 71.2999 40.3105 74.7461C35.5899 78.1923 29.7935 79.8903 23.9342 79.5432C18.0749 79.1961 12.5254 76.826 8.25555 72.8471C3.98568 68.8683 1.26699 63.5337 0.574575 57.7757C-1.17807 44.8707 6.08899 35.2427 22.0423 29.7023ZM25.3852 36.6785C21.769 36.6869 18.2368 37.7558 15.2363 39.7495C12.2357 41.7433 9.90193 44.5721 8.53068 47.8776C7.15943 51.183 6.81248 54.8163 7.53379 58.3167C8.2551 61.8172 10.0122 65.0273 12.5824 67.5402C15.1526 70.053 18.4201 71.7556 21.9709 72.4319C25.5216 73.1083 29.1957 72.728 32.5275 71.3394C35.8592 69.9507 38.6986 67.6162 40.6858 64.6316C42.6729 61.6471 43.7184 58.1469 43.6896 54.5748C43.6468 49.8093 41.6985 45.2538 38.2697 41.9014C34.8408 38.549 30.2094 36.6716 25.3852 36.6785Z"/>
</g>
<defs>
<clipPath id="clip0">
<rect x="0.317993" y="0.868896" width="50.2197" height="78.6459"/>
</clipPath>
</defs>
</svg>
