<svg width="55" height="55" viewBox="0 0 55 55" class="ionicon" xmlns="http://www.w3.org/2000/svg">
<g clip-path="url(#clip0)">
<path d="M27.456 0.294884C12.8391 0.147442 0.672119 12.5141 0.672119 27.415C0.724638 34.5808 3.62016 41.4323 8.7217 46.4621C11.2477 48.9526 14.2393 50.921 17.5257 52.2547C20.812 53.5885 24.3287 54.2616 27.8751 54.2356C31.4214 54.2096 34.9279 53.485 38.1943 52.1031C41.4608 50.7213 44.4232 48.7092 46.9124 46.1819C49.4017 43.6546 51.369 40.6615 52.7021 37.3734C54.0352 34.0854 54.708 30.5669 54.682 27.0187C54.5254 12.0073 42.7453 0.451541 27.456 0.294884ZM46.7978 27.7191C46.7407 32.7375 44.7608 37.5427 41.2664 41.1434C37.7721 44.7441 33.0298 46.8658 28.0178 47.0708C25.4404 47.1098 22.8805 46.64 20.4847 45.6882C18.0889 44.7364 15.9042 43.3214 14.0556 41.524C12.2069 39.7266 10.7306 37.5822 9.71112 35.2134C8.69163 32.8446 8.14895 30.2979 8.11413 27.7191C7.94834 16.9743 16.4035 8.10931 26.5349 7.63934C37.3756 7.14172 46.9636 16.2739 46.8163 27.7191H46.7978ZM24.3705 33.1284C24.3126 31.581 24.5469 30.0366 25.0613 28.5761C25.6443 27.2878 26.51 26.1476 27.5941 25.2402C28.5367 24.4709 29.3647 23.5711 30.0533 22.5678C30.4497 21.915 30.66 21.1661 30.6612 20.4023C30.6612 18.0985 29.602 16.9466 27.4836 16.9466C27.0397 16.926 26.5963 16.9972 26.1811 17.1558C25.7659 17.3143 25.3878 17.5568 25.0705 17.8681C24.443 18.5702 24.1127 19.4888 24.1495 20.4299H18.2179C18.1702 19.2929 18.3704 18.1591 18.8046 17.1072C19.2388 16.0554 19.8966 15.1107 20.7324 14.3387C22.6272 12.7836 25.0368 11.9975 27.4836 12.1363C30.3573 12.1363 32.5954 12.8275 34.1796 14.2189C34.996 14.9636 35.6362 15.8811 36.0536 16.9045C36.471 17.9279 36.6552 19.0315 36.5927 20.135C36.5973 21.2714 36.3321 22.3926 35.819 23.4064C35.1086 24.686 34.1939 25.8408 33.1112 26.8252L31.4625 28.3918C30.4718 29.3048 29.8438 30.545 29.6941 31.8843L29.6112 33.1284H24.3705ZM23.781 39.367C23.768 38.9499 23.8433 38.5347 24.002 38.1488C24.1608 37.7628 24.3994 37.4149 24.7021 37.1277C25.3603 36.5565 26.2024 36.2421 27.0738 36.2421C27.9451 36.2421 28.7872 36.5565 29.4454 37.1277C30.0321 37.7197 30.3612 38.5196 30.3612 39.3532C30.3612 40.1868 30.0321 40.9867 29.4454 41.5786C29.1281 41.8845 28.7527 42.1237 28.3413 42.282C27.93 42.4403 27.4912 42.5144 27.0507 42.5001C26.6102 42.5155 26.171 42.4418 25.7595 42.2835C25.3481 42.1251 24.9728 41.8854 24.656 41.5786C24.3633 41.292 24.1341 40.947 23.9834 40.566C23.8326 40.1849 23.7637 39.7764 23.781 39.367Z"/>
</g>
<defs>
<clipPath id="clip0">
<rect x="0.672119" y="0.295044" width="54.0098" height="54.0098"/>
</clipPath>
</defs>
</svg>
