<svg width="65" height="92" viewBox="0 0 65 92" class="ionicon" xmlns="http://www.w3.org/2000/svg">
<g clip-path="url(#clip0)">
<path d="M29.6926 65.5598V74.377L39.1665 75.0406V81.8151L29.8229 82.3753C29.6926 83.8836 29.5623 85.254 29.4668 86.6244C29.3713 87.9948 29.2931 89.4256 29.1976 91.0632H22.598C22.4938 89.5635 22.3896 88.1672 22.2941 86.7537C22.216 85.4867 22.1552 84.168 22.051 82.4443L12.4034 81.7375V74.9717L21.9555 74.377V65.5081C12.7247 63.2586 5.69095 58.1734 2.24353 49.115C1.05588 46.0907 0.490129 42.861 0.57961 39.6164C0.669092 36.3717 1.412 33.1776 2.76455 30.2223C9.08626 15.8546 23.1451 11.7779 41.1898 19.2849L52.2788 7.07194H41.65V0.918038C44.5938 -0.0558988 59.4602 -0.262753 65.0004 0.616376V23.0255H58.9826C58.8263 19.69 58.6613 16.3459 58.5137 13.1914L46.6431 25.051C51.4886 32.1357 53.3556 40.565 49.7519 49.5631C46.1916 58.4492 39.2533 63.362 29.6926 65.5598ZM44.6459 40.4702C44.6836 35.6063 42.7922 30.9229 39.3802 27.4315C35.9682 23.9402 31.3095 21.921 26.4102 21.8103C23.9675 21.7882 21.5444 22.2439 19.2792 23.1513C17.014 24.0587 14.951 25.4 13.2081 27.0987C11.4652 28.7974 10.0764 30.8203 9.1211 33.0517C8.1658 35.2831 7.66267 37.6795 7.64043 40.1039C7.6182 42.5283 8.07729 44.9333 8.9915 47.1817C9.90572 49.43 11.2571 51.4776 12.9686 53.2075C14.6801 54.9374 16.7181 56.3159 18.9663 57.264C21.2145 58.2122 23.6289 58.7116 26.0715 58.7337C30.9719 58.7474 35.6782 56.8332 39.1596 53.4101C42.6409 49.9869 44.6137 45.334 44.6459 40.4702Z"/>
</g>
<defs>
<clipPath id="clip0">
<rect x="0.567139" y="0.0556641" width="64.4328" height="90.9639"/>
</clipPath>
</defs>
</svg>
