<svg width="67" height="92" viewBox="0 0 67 92" class="ionicon" xmlns="http://www.w3.org/2000/svg">
<g clip-path="url(#clip0)">
<path d="M28.1141 5.9384C27.4425 8.26629 26.9919 9.85462 26.4138 11.8211L15.4215 9.24954L23.3788 23.158C36.2074 19.6116 46.9702 22.3176 55.191 34.1335L60.1729 24.2085L66.3279 26.7297C64.0835 31.772 61.9241 36.453 59.9433 41.2096C59.0606 43.1029 58.4868 45.1225 58.243 47.1932C57.9194 53.8467 54.9712 60.1099 50.0307 64.6397C49.6226 65.0179 49.2911 65.4801 48.696 66.144L52.9892 73.5479L61.6521 68.9677L65.2057 74.8505L57.0103 80.0525L60.955 87.7673L55.4801 90.986L50.6428 83.7166L42.0309 88.1875C40.8407 86.221 39.727 84.3553 38.4348 82.2123L46.8512 76.9935C45.4314 74.4723 44.0797 72.1024 42.6005 69.43C32.2883 72.3461 23.0473 70.8082 14.7499 62.8665C13.8998 66.7155 13.1177 70.0014 12.2505 73.7916L5.71294 72.8756C6.28253 69.514 6.7246 66.5054 7.3027 63.522C8.31436 58.32 9.24101 53.1936 8.60341 47.7731C7.75327 40.5709 10.4652 34.3268 15.464 29.0239C16.0421 28.4189 16.6117 27.797 17.1643 27.1667C17.31 26.8973 17.4323 26.6161 17.5299 26.3263L10.3802 13.5019H9.47905C8.50139 16.8635 7.51523 20.2251 6.40155 24.032L0 22.5193C2.07434 14.8465 4.02116 7.61918 6.06999 0.0556641L28.1141 5.9384ZM33.368 28.3516C28.6198 28.3976 24.0794 30.2828 20.722 33.6022C17.3647 36.9216 15.4585 41.4103 15.4128 46.104C15.3672 50.7977 17.1858 55.3218 20.4779 58.7044C23.7701 62.087 28.273 64.0581 33.0194 64.1943C35.4293 64.2635 37.829 63.8569 40.078 62.9983C42.3271 62.1397 44.3804 60.8464 46.1178 59.194C47.8551 57.5416 49.2418 55.5634 50.1965 53.3749C51.1513 51.1865 51.6549 48.8318 51.6781 46.4486C51.7013 44.0655 51.2435 41.7016 50.3315 39.4955C49.4195 37.2893 48.0716 35.285 46.3666 33.5999C44.6617 31.9148 42.634 30.5828 40.402 29.6816C38.1701 28.7804 35.7788 28.3283 33.368 28.3516Z"/>
</g>
<defs>
<clipPath id="clip0">
<rect y="0.0556641" width="66.3279" height="90.9639"/>
</clipPath>
</defs>
</svg>
