<svg width="80" height="90" viewBox="0 0 80 90" class="ionicon" xmlns="http://www.w3.org/2000/svg">
<g clip-path="url(#clip0)">
<path d="M19.4544 24.9544L12.5528 31.5694C11.1337 29.7608 9.85811 28.128 8.2193 26.0514L14.1325 19.4783L7.29008 13.0643V23.9496L0.77708 24.452C0.388497 16.7318 0.439181 9.43022 0.439181 1.50901C7.87295 0.998238 15.0702 0.839144 22.7152 0.897758C22.825 3.01622 22.9179 4.74951 23.0362 6.9852L12.536 7.51272L19.2939 14.6468L25.6295 6.81773C27.7245 9.16227 29.169 10.7616 30.8501 12.6791L24.9368 19.2857C25.0382 19.5955 25.148 19.9137 25.2578 20.2319C35.1498 14.0021 45.1009 13.3824 55.1112 19.5871L66.1858 7.4876H55.9306V1.14896H78.1559C79.1527 3.93729 79.4314 16.4638 78.5698 22.9197H72.5974V13.3322L71.6429 12.88L60.1881 24.1171C65.4847 31.7955 67.3093 39.9595 63.8543 48.7264C60.3993 57.4933 53.4301 62.2578 44.3069 64.393V72.8417L53.5991 73.4949C53.7089 75.5966 53.8187 77.5978 53.9539 80.0931L44.366 80.6625C44.1802 83.5764 44.0197 86.1638 43.8423 89.0358H37.4137C37.2279 86.3982 37.0505 83.8192 36.8309 80.7713L27.4711 80.0679V73.4865L36.7633 72.9087V64.2758C28.1722 62.1741 21.4649 57.5185 17.9508 49.1535C14.5127 40.9392 15.9065 33.085 20.4005 25.5238L19.4544 24.9544ZM58.8534 39.7586C58.8515 36.206 57.7843 32.7342 55.7874 29.7842C53.7905 26.8341 50.954 24.5391 47.6383 23.1905C44.3226 21.8419 40.6773 21.5006 37.1655 22.2101C33.6537 22.9196 30.4339 24.6478 27.9152 27.1751C25.3965 29.7025 23.6925 32.9149 23.0197 36.4043C22.3468 39.8937 22.7356 43.5025 24.1365 46.7725C25.5375 50.0424 27.8873 52.8257 30.8877 54.7689C33.888 56.7121 37.4033 57.7274 40.987 57.6859C45.7449 57.6265 50.2876 55.7118 53.6316 52.3564C56.9755 49.001 58.8516 44.4751 58.8534 39.7586Z"/>
</g>
<defs>
<clipPath id="clip0">
<rect x="0.439331" y="0.898438" width="78.6459" height="88.1213"/>
</clipPath>
</defs>
</svg>
