<svg width="76" height="76" viewBox="0 0 76 76" class="ionicon" xmlns="http://www.w3.org/2000/svg">
<path d="M38 13.3594C44.5758 13.3594 50.7656 15.9273 55.4266 20.5734C60.0727 25.2344 62.6406 31.4242 62.6406 38C62.6406 44.5758 60.0727 50.7656 55.4266 55.4266C50.7656 60.0727 44.5758 62.6406 38 62.6406C31.4242 62.6406 25.2344 60.0727 20.5734 55.4266C15.9273 50.7656 13.3594 44.5758 13.3594 38C13.3594 31.4242 15.9273 25.2344 20.5734 20.5734C25.2344 15.9273 31.4242 13.3594 38 13.3594ZM38 7.125C20.9445 7.125 7.125 20.9445 7.125 38C7.125 55.0555 20.9445 68.875 38 68.875C55.0555 68.875 68.875 55.0555 68.875 38C68.875 20.9445 55.0555 7.125 38 7.125Z"/>
<path d="M53.4375 49.118L49.118 53.4375L38 42.3195L26.882 53.4375L22.5625 49.118L33.6805 38L22.5625 26.882L26.882 22.5625L38 33.6805L49.118 22.5625L53.4375 26.882L42.3195 38L53.4375 49.118Z"/>
</svg>
