<svg width="39" height="41" viewBox="0 0 39 41" fill="none" xmlns="http://www.w3.org/2000/svg">
<path d="M27.3898 8.24892L31.254 9.13979C31.4003 9.17354 31.5458 9.14522 31.6645 9.07245C31.7824 8.99977 31.8735 8.88263 31.9078 8.73751L33.4922 2.11234C33.5616 1.82201 33.3801 1.53071 33.0867 1.4633L31.5748 1.11434C31.4309 1.08113 31.2845 1.10797 31.1643 1.18167C31.0963 1.22327 31.0378 1.27962 30.9926 1.34955L27.056 7.43282C26.8533 7.74628 27.024 8.16456 27.3898 8.24892ZM25.1296 19.3119L3.77523 20.3559C2.54883 20.4378 1.77786 21.7009 2.27612 22.8124C2.46768 23.2404 2.82228 23.5713 3.25677 23.7375C3.33608 23.7679 3.41875 23.7925 3.5033 23.8121C3.5033 23.8121 10.6563 25.4319 10.8289 25.4975C12.9435 26.3054 13.9146 28.8221 12.7578 30.8485L9.33669 36.8442C9.06164 37.3264 9.03332 37.9083 9.25989 38.4144C9.46171 38.8649 9.82177 39.1796 10.2372 39.3383C10.8484 39.5713 11.58 39.4694 12.1061 38.967L27.24 24.0275C27.1068 23.651 26.9737 23.2744 26.8406 22.8979C27.0437 22.2171 27.2467 21.5362 27.4506 20.8553C26.6855 20.7081 25.9213 20.5608 25.1562 20.4136C25.1471 20.0472 25.1387 19.6791 25.1296 19.3119ZM16.68 31.5392C16.0968 31.3166 15.808 30.6674 16.0334 30.0889C16.2589 29.5103 16.9142 29.2228 17.4974 29.4453C18.0805 29.6678 18.3694 30.317 18.1439 30.8956C17.9183 31.4733 17.2631 31.7617 16.68 31.5392ZM19.0162 28.3091C18.7293 28.4361 18.4181 28.435 18.1472 28.3315C17.8771 28.2286 17.6465 28.0234 17.5198 27.7398L15.9174 24.1607C15.6639 23.5936 15.9218 22.9291 16.4942 22.6768C17.0666 22.4237 17.7364 22.679 17.9899 23.2461L19.5923 26.8253C19.8473 27.3914 19.5886 28.056 19.0162 28.3091ZM21.6725 26.7807C21.4024 26.6779 21.1718 26.4727 21.0451 26.1891L19.4427 22.61C19.1892 22.0428 19.4471 21.3784 20.0195 21.1261C20.5919 20.873 21.2617 21.1283 21.5152 21.6954L23.1176 25.2745C23.3711 25.8416 23.1132 26.5061 22.5407 26.7584C22.2546 26.8854 21.9434 26.8843 21.6725 26.7807ZM34.5196 2.54252L33.7735 2.37058L33.2499 4.55858L34.0018 4.73229C34.3058 4.80255 34.61 4.74376 34.8564 4.59259C35.1034 4.44057 35.2925 4.19537 35.3638 3.89227C35.5079 3.28668 35.1292 2.68287 34.5196 2.54252ZM33.2036 8.07185C33.5076 8.1421 33.8119 8.08332 34.0582 7.93215C34.3053 7.78012 34.4944 7.53493 34.5656 7.23182C34.7082 6.62717 34.3304 6.02328 33.7207 5.88216L32.9745 5.71021L32.4509 7.89821L33.2036 8.07185ZM29.2004 3.34768L30.5003 1.33876L29.4136 1.08852C28.804 0.948172 28.1942 1.32389 28.0508 1.92862C27.9082 2.53327 28.286 3.13716 28.8957 3.27829L29.2004 3.34768ZM27.2294 6.41752C27.2693 6.34184 27.3116 6.26669 27.3581 6.19426L28.5155 4.4053L27.4385 4.1572C26.8289 4.01685 26.2192 4.39257 26.0757 4.9973C25.9331 5.60195 26.311 6.20584 26.9206 6.34697L27.2294 6.41752ZM28.2437 8.89045L25.8316 18.9306C26.5194 18.6578 27.2079 18.3841 27.8957 18.1113C28.3052 18.6372 28.7147 19.1631 29.1244 19.6898C29.9305 16.3352 30.7366 12.9799 31.5427 9.6254L28.2437 8.89045ZM35.5976 25.6234L32.6777 23.7813C32.3467 23.5722 31.9075 23.6692 31.696 23.9977C31.4845 24.3262 31.5816 24.7615 31.9126 24.9706L34.8325 26.8128C35.1635 27.0219 35.6027 26.9248 35.8142 26.5963C36.0256 26.267 35.9285 25.8317 35.5976 25.6234ZM32.2593 28.6166L30.1037 25.5851C29.8788 25.266 29.4339 25.1914 29.1142 25.4162C28.7929 25.6411 28.7158 26.0809 28.942 26.3975L31.0976 29.429C31.1524 29.5067 31.2207 29.5689 31.2963 29.617C31.5322 29.7658 31.845 29.7675 32.0871 29.5979C32.4085 29.3738 32.4848 28.9341 32.2593 28.6166ZM32.1979 21.83C32.2743 21.8781 32.3603 21.9125 32.4541 21.9288L36.1383 22.5825C36.524 22.6515 36.8938 22.3964 36.963 22.0124C37.0333 21.63 36.7755 21.2608 36.3902 21.1949L32.7052 20.5413C32.3195 20.4724 31.9498 20.7275 31.8805 21.1114C31.8285 21.4015 31.9628 21.6811 32.1979 21.83Z" fill="#BDBDBD"/>
</svg>
