<svg width="46" height="46" viewBox="0 0 46 46" fill="none" xmlns="http://www.w3.org/2000/svg">
<path d="M23 4.3125C12.6287 4.3125 4.3125 12.7219 4.3125 23C4.3125 33.2781 12.6287 41.6875 23 41.6875C33.3713 41.6875 41.6875 33.2781 41.6875 23C41.6875 12.7219 33.2782 4.3125 23 4.3125ZM23 37.95C14.7777 37.95 8.04964 31.2222 8.04964 23C8.04964 14.7777 14.7778 8.05 23 8.05C31.2222 8.05 37.9504 14.7777 37.9504 23C37.9504 31.2223 31.2223 37.95 23 37.95ZM29.5406 21.1313C31.1293 21.1313 32.3438 19.9167 32.3438 18.3281C32.3438 16.7395 31.1292 15.525 29.5406 15.525C27.952 15.525 26.7375 16.7395 26.7375 18.3281C26.7375 19.9167 27.952 21.1313 29.5406 21.1313ZM16.4594 21.1313C18.048 21.1313 19.2625 19.9167 19.2625 18.3281C19.2625 16.7395 18.0479 15.525 16.4594 15.525C14.8707 15.525 13.6562 16.7395 13.6562 18.3281C13.6562 19.9167 14.8708 21.1313 16.4594 21.1313ZM23 33.2781C27.3918 33.2781 31.0353 30.5681 32.5307 26.7374H13.4693C14.9647 30.5681 18.6082 33.2781 23 33.2781Z" fill="url(#paint0_linear)"/>
<defs>
<linearGradient id="paint0_linear" x1="41.6875" y1="4.3125" x2="4.3125" y2="4.3125" gradientUnits="userSpaceOnUse">
<stop stop-color="#FF26A8"/>
<stop offset="1" stop-color="#F2C94C"/>
</linearGradient>
</defs>
</svg>
