<svg width="38" height="38" viewBox="0 0 38 38" fill="none" xmlns="http://www.w3.org/2000/svg">
<path d="M33.9625 10.4055L27.8394 10.1086L27.4832 6.11564C27.409 5.27697 26.6594 4.69064 25.7836 4.75744L3.82225 6.56095C2.94647 6.63517 2.31561 7.34025 2.38241 8.1715L3.95585 25.6723C4.03007 26.511 4.7871 27.0973 5.65546 27.0305L6.76874 26.9414L6.59061 30.3407C6.54608 31.2758 7.27343 32.0328 8.25311 32.0848L32.7527 33.25C33.7324 33.2946 34.5414 32.6117 34.5933 31.6766L35.625 12.1348C35.6695 11.207 34.9347 10.45 33.9625 10.4055ZM7.62225 10.7988L7.0953 20.8035L5.79647 22.6367L4.60155 9.4258V9.38869V9.35158C4.67577 8.98049 4.92811 8.68361 5.31405 8.65392L24.6851 7.06564C25.0711 7.03595 25.4051 7.2883 25.4644 7.65197C25.4644 7.66681 25.4867 7.66681 25.4867 7.68166C25.4867 7.68908 25.509 7.6965 25.509 7.71134L25.7094 9.99728L9.45546 9.21799C8.47577 9.1883 7.66678 9.87111 7.62225 10.7988V10.7988ZM32.4113 28.3813L26.1176 20.9965L23.3418 23.5422L18.2058 17.5453L9.09921 27.2457L9.87108 12.4688V12.4391C9.9453 12.0383 10.3312 11.7488 10.7543 11.7711L32.3668 12.8102C32.7972 12.8324 33.1312 13.159 33.1387 13.5672C33.1387 13.5821 33.1609 13.5895 33.1609 13.6043L32.4113 28.3813V28.3813Z" fill="#CF9BFF"/>
<path d="M28.5 19C29.8063 19 30.875 17.9313 30.875 16.625C30.875 15.3187 29.8137 14.25 28.5 14.25C27.1937 14.25 26.125 15.3113 26.125 16.625C26.125 17.9387 27.1863 19 28.5 19Z" fill="#CF9BFF"/>
</svg>
