<svg width="26" height="34" viewBox="0 0 26 34" fill="none" xmlns="http://www.w3.org/2000/svg">
<g clip-path="url(#clip0)">
<path d="M17.6241 5.19531C20.2333 5.19531 22.0416 8.08054 22.3207 10.5955C22.6969 14.0297 20.3304 17.8469 17.5027 17.7831C14.7479 17.7065 12.5634 13.9404 12.9396 10.5955C13.2187 8.08054 15.0149 5.19531 17.6241 5.19531Z" fill="#BDBDBD"/>
<path d="M18.4493 33.3333C19.3109 33.3333 21.0949 33.3206 22.2964 32.0695C22.8182 31.5205 22.709 31.2652 23.7042 28.9417C24.675 26.6565 24.8085 26.8224 25.1119 25.8139C26.0585 22.5839 25.6459 21.4094 25.1119 20.9243C24.1532 20.0562 22.26 21.0009 21.0464 19.7115C20.658 19.303 20.4881 18.8434 20.4153 18.5753C19.8692 19.9157 19.3352 21.4477 18.8619 23.1584C18.4857 24.55 18.2066 25.8777 18.0003 27.0778C17.8304 25.916 17.5391 24.5628 17.0779 23.0946C16.4954 21.2562 15.7915 19.7242 15.1241 18.5114C15.0512 18.9072 14.8692 19.52 14.3838 19.903C13.9105 20.2604 13.3643 20.2221 12.0901 20.0817C10.4517 19.8902 9.63862 19.8008 9.28667 19.7242C6.98085 19.2008 5.0391 18.1923 3.83764 17.4901C4.54153 16.2007 5.25755 14.9113 5.96143 13.6346C6.36192 13.3027 7.09007 12.6133 7.5391 11.4771C7.78182 10.8643 7.87891 10.3153 7.90318 9.89404C10.9978 7.00881 14.0804 4.14912 17.1629 1.27665C17.4542 1.03409 17.5148 0.587263 17.2842 0.268101C17.0415 -0.0382953 16.6289 -0.102128 16.3255 0.140436C13.2308 3.10226 10.1362 6.06409 7.04153 9.02592C6.90803 9.02592 5.67017 8.94932 4.80852 9.99617C4.00755 10.9664 4.15318 12.1282 4.17745 12.2941C3.55852 13.1878 2.97599 14.0176 2.45415 14.7708C0.791528 17.1709 0.706576 17.3114 0.682304 17.605C0.439586 19.954 4.75997 22.3031 6.64104 23.3372C8.74056 24.4734 10.5974 25.0989 11.8595 25.4436C12.0415 26.299 12.3328 27.499 12.8304 28.8778C13.425 30.5375 13.7284 31.3545 14.3838 32.0056C15.743 33.3461 17.6241 33.3333 18.4493 33.3333Z" fill="#BDBDBD"/>
</g>
<defs>
<clipPath id="clip0">
<rect width="25" height="33.3333" fill="white" transform="translate(0.670166)"/>
</clipPath>
</defs>
</svg>
