<svg width="33" height="27" viewBox="0 0 33 27" fill="none" xmlns="http://www.w3.org/2000/svg">
<path d="M32.6328 3.48535C31.4434 4.01172 30.1719 4.36719 28.832 4.53125C30.1992 3.71094 31.2519 2.41211 31.7441 0.867187C30.4658 1.62598 29.0508 2.17969 27.54 2.47363C26.3301 1.18164 24.6074 0.375 22.707 0.375C19.0498 0.375 16.0898 3.3418 16.0898 6.99902C16.0898 7.51855 16.1445 8.02441 16.2607 8.50977C10.7578 8.23633 5.87695 5.59766 2.61621 1.58496C2.04883 2.5625 1.7207 3.7041 1.7207 4.91406C1.7207 7.21094 2.89648 9.24121 4.67383 10.4307C3.58008 10.4033 2.55469 10.1025 1.66602 9.60352V9.68555C1.66602 12.8984 3.94922 15.5713 6.97754 16.1797C6.42383 16.3301 5.83594 16.4121 5.23437 16.4121C4.81055 16.4121 4.39355 16.3711 3.99023 16.2891C4.83105 18.9209 7.27832 20.835 10.1768 20.8896C7.91406 22.667 5.05664 23.7266 1.95312 23.7266C1.41992 23.7266 0.893555 23.6924 0.374023 23.6309C3.29297 25.5313 6.77246 26.625 10.5049 26.625C22.6934 26.625 29.3516 16.5283 29.3516 7.77148C29.3516 7.48437 29.3447 7.19727 29.331 6.91699C30.623 5.98047 31.7441 4.81836 32.6328 3.48535Z" fill="#BDBDBD"/>
</svg>
