<svg width="27" height="27" viewBox="0 0 27 27" fill="none" xmlns="http://www.w3.org/2000/svg">
<path d="M25.1758 0.375H1.82422C1.02441 0.375 0.375 1.02441 0.375 1.82422V25.1758C0.375 25.9756 1.02441 26.625 1.82422 26.625H13.5V16.2344H10.3623V12.4062H13.5V9.57617C13.5 6.18555 15.8516 4.33984 18.8799 4.33984C20.3291 4.33984 21.8877 4.44922 22.25 4.49707V8.03809H19.8369C18.1895 8.03809 17.875 8.81738 17.875 9.96582V12.4062H21.7988L21.2861 16.2344H17.875V26.625H25.1758C25.9756 26.625 26.625 25.9756 26.625 25.1758V1.82422C26.625 1.02441 25.9756 0.375 25.1758 0.375Z" fill="#BDBDBD"/>
</svg>
