<svg width="35" height="35" viewBox="0 0 35 35" fill="none" xmlns="http://www.w3.org/2000/svg">
<path d="M22.9688 6.5625C24.418 6.5625 25.792 7.13672 26.8311 8.16895C27.8701 9.20117 28.4375 10.582 28.4375 12.0312V22.9688C28.4375 24.418 27.8633 25.792 26.8311 26.8311C25.7988 27.8701 24.418 28.4375 22.9688 28.4375H12.0312C10.582 28.4375 9.20801 27.8633 8.16895 26.8311C7.12988 25.7988 6.5625 24.418 6.5625 22.9688V12.0312C6.5625 10.582 7.13672 9.20801 8.16895 8.16895C9.20117 7.12988 10.582 6.5625 12.0312 6.5625H22.9688ZM22.9688 4.375H12.0312C7.82031 4.375 4.375 7.82031 4.375 12.0312V22.9688C4.375 27.1797 7.82031 30.625 12.0312 30.625H22.9688C27.1797 30.625 30.625 27.1797 30.625 22.9688V12.0312C30.625 7.82031 27.1797 4.375 22.9688 4.375Z" fill="#BDBDBD"/>
<path d="M24.6094 12.0312C23.7002 12.0312 22.9688 11.2998 22.9688 10.3906C22.9688 9.48145 23.7002 8.75 24.6094 8.75C25.5117 8.75 26.25 9.48145 26.25 10.3906C26.25 11.2998 25.5117 12.0312 24.6094 12.0312ZM17.5 13.125C19.9131 13.125 21.875 15.0869 21.875 17.5C21.875 19.9131 19.9131 21.875 17.5 21.875C15.0869 21.875 13.125 19.9131 13.125 17.5C13.125 15.0869 15.0869 13.125 17.5 13.125ZM17.5 10.9375C13.877 10.9375 10.9375 13.877 10.9375 17.5C10.9375 21.123 13.877 24.0625 17.5 24.0625C21.123 24.0625 24.0625 21.123 24.0625 17.5C24.0625 13.877 21.123 10.9375 17.5 10.9375Z" fill="#BDBDBD"/>
</svg>
