<svg id="Layer_1" data-name="Layer 1" xmlns="http://www.w3.org/2000/svg" viewBox="0 0 231 195"><path d="M117.72,163.13V130.76a2.51,2.51,0,0,0-1.5-2.3,2.66,2.66,0,0,0-1-.2,2.48,2.48,0,0,0-1.7.67,16.74,16.74,0,0,1-8.7,4.36c-2,.33-9,1-13.75-4.21-4.43-4.87-3.5-11.2-3.38-11.9a14.83,14.83,0,0,1,6-9.39,15.49,15.49,0,0,1,11.17-2.56,16.06,16.06,0,0,1,8.63,4.32,2.5,2.5,0,0,0,4.24-1.79V93.15a27.32,27.32,0,0,0,32.91-34.06,2.5,2.5,0,0,0-3.78-1.42A34.67,34.67,0,0,1,117.72,62V51.6a39.13,39.13,0,0,1,34-19.73h0A39.28,39.28,0,0,1,191,71.11C191.07,111.86,131.71,153.82,117.72,163.13Zm-5-27.43a21.22,21.22,0,0,1-7.09,2.53c-2.66.43-11.81,1.29-18.26-5.79-5.89-6.48-4.88-14.55-4.61-16.1a19.88,19.88,0,0,1,8-12.62,20.56,20.56,0,0,1,22-.94v-13a2.51,2.51,0,0,1,3.4-2.34,22.31,22.31,0,0,0,30.35-23.71,39.6,39.6,0,0,1-32.09,2.4,2.49,2.49,0,0,1-1.66-2.35v-13A39.3,39.3,0,0,0,79.26,32h-.05A39.22,39.22,0,0,0,40,71.29c0,34.82,51.09,76.74,72.76,91.4Z"/></svg>