<svg xmlns="http://www.w3.org/2000/svg" viewBox="0 0 512 512"><path d="M409.4,372.09H206.22L139.1,442.4a22.26,22.26,0,0,1-38.36-15.51,150.26,150.26,0,0,1,0-50.86c2-11.17,5.26-20.91,15-46.9a34.12,34.12,0,0,1,8.33-14.45,24.71,24.71,0,0,1,10-5.06H379.59c7,0,13.9,7.38,17.15,18.39l9.69,32.54ZM489,101.47V333.32a38.82,38.82,0,0,1-38.7,38.77H429.53l-4.31-16.5-9.78-33.07c-5.85-19.63-19.91-32.32-35.82-32.32H134c-15.88,0-29.88,12.63-35.76,32.17L81.54,372H61.7A38.82,38.82,0,0,1,23,333.22V101.47A38.85,38.85,0,0,1,61.7,62.7H450.3A38.85,38.85,0,0,1,489,101.47ZM80.06,99.39a18.59,18.59,0,1,0-5.44,13.16A18.65,18.65,0,0,0,80.06,99.39ZM175.69,194a46.91,46.91,0,1,1,0-.12Zm251.48,0a47,47,0,1,1,0-.12Zm42.17-94.6a18.59,18.59,0,1,0-5.44,13.16A18.65,18.65,0,0,0,469.34,99.39ZM308.14,209.16c-3.1-8-5-22.33-1.24-30.65a15,15,0,0,0,1.52-9.52,8.7,8.7,0,0,0-1.06-2.42c-1.67-2.91-7.8-5.89-26.84-6.2H228.73c-20.84.22-27.28,3.35-29,6.2a10.85,10.85,0,0,0-1.06,2.42,15,15,0,0,0,1.52,9.52c3.72,8.32,1.83,22.68-1.21,30.65a16.31,16.31,0,0,0-1.27,11.44,11.43,11.43,0,0,0,1.24,2.08c1.33,2,6.19,5.8,29.79,4.62h49.53c23.65,1.18,28.48-2.66,31-6.7S309,211.52,308.14,209.16Z"/></svg>