<svg id="Layer_1" data-name="Layer 1" xmlns="http://www.w3.org/2000/svg" viewBox="0 0 231 195"><path d="M165.05,134.92H99.42L77.74,157.59a7.19,7.19,0,0,1-12.39-5,48.34,48.34,0,0,1,0-16.4c.65-3.6,1.7-6.74,4.84-15.12a11,11,0,0,1,2.69-4.66,8,8,0,0,1,3.22-1.63h79.32c2.26,0,4.49,2.38,5.54,5.93l3.13,10.49Zm25.71-87.25v74.75a12.53,12.53,0,0,1-12.5,12.5h-6.71l-1.39-5.32L167,118.94c-1.89-6.33-6.43-10.42-11.57-10.42H76.1c-5.13,0-9.65,4.07-11.55,10.37l-5.4,16H52.74a12.53,12.53,0,0,1-12.5-12.5V47.67a12.54,12.54,0,0,1,12.5-12.5H178.26A12.54,12.54,0,0,1,190.76,47.67ZM58.67,47a6,6,0,1,0-6,6A6,6,0,0,0,58.67,47Zm30.89,30.5a15,15,0,1,0-15,15A15,15,0,0,0,89.56,77.46Zm81.23,0a15,15,0,1,0-15,15A15,15,0,0,0,170.79,77.46ZM184.41,47a6,6,0,1,0-6,6A6,6,0,0,0,184.41,47ZM132.34,82.39c-1-2.58-1.6-7.2-.4-9.88a4.82,4.82,0,0,0,.49-3.07,2.76,2.76,0,0,0-.34-.78c-.54-.94-2.52-1.9-8.67-2h0l-.23,0h-16.5c-6.73.07-8.81,1.08-9.37,2a3.49,3.49,0,0,0-.34.78,4.81,4.81,0,0,0,.49,3.07c1.2,2.68.59,7.31-.39,9.88a5.24,5.24,0,0,0-.41,3.69,3.6,3.6,0,0,0,.4.67c.43.63,2,1.87,9.62,1.49h16c7.64.38,9.2-.86,10-2.16S132.63,83.15,132.34,82.39Z"/></svg>