<svg width="36" height="36" viewBox="0 0 36 36" fill="none" xmlns="http://www.w3.org/2000/svg">
<path d="M18 22.5C20.6516 22.5 22.8214 20.3257 22.8214 17.6685V7.08145C22.8214 4.42434 20.6516 2.25 18 2.25C15.3484 2.25 13.1786 4.42434 13.1786 7.08145V17.6685C13.1786 20.3257 15.3484 22.5 18 22.5ZM26.5176 17.1948C26.5176 22.0262 22.4196 25.4083 18 25.4083C13.5804 25.4083 9.48241 22.0262 9.48241 17.1948H6.75C6.75 22.6702 11.0896 27.2602 16.3929 27.9853V33.75H19.6071V27.9853C24.9104 27.1801 29.25 22.6702 29.25 17.1948H26.5176Z" fill="#CF9BFF"/>
</svg>
