<svg width="29" height="39" viewBox="0 0 29 39" fill="none" xmlns="http://www.w3.org/2000/svg">
<path d="M14.5001 38.0718C15.1173 38.0718 15.6155 37.5736 15.6155 36.9564V30.7325C17.2067 29.5725 20.7537 27.4161 21.118 22.092C21.817 21.7128 22.3078 20.999 22.3078 20.1513V15.3402L21.5567 15.0725C20.0844 14.5446 18.8278 13.6523 17.8462 12.522V20.1513C17.8462 20.9395 18.2775 21.6013 18.9021 21.9954C18.5749 26.5015 15.4593 27.959 14.5001 28.8438C13.5483 27.959 10.4252 26.4941 10.098 21.9954C10.7152 21.6013 11.1539 20.9395 11.1539 20.1513V12.5295C10.1649 13.6523 8.91572 14.552 7.44341 15.08L6.69238 15.3402V20.1513C6.69238 20.999 7.18315 21.7128 7.88213 22.092C8.23905 27.4236 11.7785 29.5577 13.3847 30.7325V36.9564C13.3847 37.5736 13.8829 38.0718 14.5001 38.0718Z" fill="white"/>
<path d="M6.69238 12.9757C9.28751 12.0536 11.1539 9.59977 11.1539 6.69233C11.1539 3.78489 9.28751 1.33105 6.69238 0.408997V12.9757Z" fill="white"/>
<path d="M0 2.23077V11.1538C0 12.3882 0.99641 13.3846 2.23077 13.3846H4.46154V0H2.23077C0.99641 0 0 0.99641 0 2.23077Z" fill="white"/>
<path d="M22.3077 12.9757V0.408997C19.7126 1.33105 17.8462 3.78489 17.8462 6.69233C17.8462 9.59977 19.7126 12.0536 22.3077 12.9757Z" fill="white"/>
<path d="M29.0001 11.1538V2.23077C29.0001 0.99641 28.0037 0 26.7693 0H24.5386V13.3846H26.7693C28.0037 13.3846 29.0001 12.3882 29.0001 11.1538Z" fill="white"/>
</svg>
