<svg id="Layer_1" data-name="Layer 1" xmlns="http://www.w3.org/2000/svg" viewBox="0 0 133 131"><path d="M101.26,105.68l-69.94.24c1.13-4.08,2.27-7.34,3.4-11.41a9.25,9.25,0,0,1,1.88-3.76,5.29,5.29,0,0,1,2.26-1.32H94.5c1.59,0,3.15,1.92,3.89,4.79l2.19,8.48Zm18-70.5v60.4c0,5.55-3.94,10.1-8.76,10.1h-4.72l-1-4.31-2.22-8.6c-1.33-5.12-4.51-8.42-8.12-8.42H38.86c-3.59,0-6.77,3.28-8.1,8.37l-3.79,13h-4.5c-4.82,0-8.76-4.55-8.76-10.1V35.18c0-5.55,3.94-10.1,8.76-10.1h88.06C115.35,25.08,119.29,29.63,119.29,35.18Zm-91.43-1a4.63,4.63,0,1,0-4.63,4.63A4.63,4.63,0,0,0,27.86,34.14ZM46.58,59.4A10.65,10.65,0,1,0,35.94,70,10.65,10.65,0,0,0,46.58,59.4Zm60.37.16A10.48,10.48,0,1,0,96.47,70,10.48,10.48,0,0,0,107,59.56Zm7.46-25.42a4.63,4.63,0,1,0-4.62,4.63A4.62,4.62,0,0,0,114.41,34.14Zm-35,29.2c-.76-2-1.22-5.52-.3-7.58a3.68,3.68,0,0,0,.37-2.35,2,2,0,0,0-.26-.6c-.41-.73-1.94-1.47-6.66-1.57H59.74c-5.18.05-6.77.82-7.2,1.58a2,2,0,0,0-.26.59,3.75,3.75,0,0,0,.38,2.36c.92,2.06.45,5.61-.31,7.58A4,4,0,0,0,52,66.18a2.31,2.31,0,0,0,.31.51c.33.48,1.52,1.44,7.39,1.15H72.05c5.86.29,7.06-.67,7.69-1.66S79.65,63.93,79.43,63.34Z"/></svg>