<svg width="28" height="28" viewBox="0 0 28 28" fill="none" xmlns="http://www.w3.org/2000/svg">
<path opacity="0.75" d="M7.25 0.5V18.6125C6.67344 18.4227 6.04062 18.3242 5.37969 18.3242C2.68672 18.3242 0.5 20.2297 0.5 22.9227C0.5 25.6156 2.68672 27.5 5.37969 27.5C8.07266 27.5 10.2734 25.5172 10.2734 22.6414V10.0625H24.4766V18.6125C23.9 18.4227 23.2672 18.3242 22.6062 18.3242C19.9133 18.3242 17.7266 20.2297 17.7266 22.9227C17.7266 25.6156 19.9133 27.5 22.6062 27.5C25.2992 27.5 27.5 25.5172 27.5 22.6414V0.5H7.25ZM24.4766 7.25H10.2734V3.52344H24.4766V7.25Z" fill="#CF9BFF"/>
</svg>
