<svg width="49" height="49" viewBox="0 0 49 49" fill="none" xmlns="http://www.w3.org/2000/svg">
<mask id="mask0" mask-type="alpha" maskUnits="userSpaceOnUse" x="0" y="0" width="49" height="49">
<path d="M49 24.5C49 38.031 38.031 49 24.5 49C10.969 49 0 38.031 0 24.5C0 10.969 10.969 0 24.5 0C38.031 0 49 10.969 49 24.5Z" fill="#C4C4C4"/>
</mask>
<g mask="url(#mask0)">
<path d="M65.411 29.5144V48.6833H-15.4953C-16.0008 46.9756 -16.1846 34.5817 -15.7758 29.5095L65.411 29.5144Z" fill="#1423B0"/>
<path d="M-15.7589 17.5195V-1.52129C-14.0899 -2.04616 62.09 -2.20339 65.3989 -1.66641V17.5146C55.4173 17.5049 45.4342 17.4961 35.4494 17.488C18.3791 17.4929 1.30971 17.5033 -15.7589 17.5195Z" fill="#FF229A"/>
<path d="M-15.7589 17.5195C1.31131 17.5082 18.3807 17.4977 35.4494 17.488C45.4325 17.488 55.4157 17.4969 65.3989 17.5146L65.4134 29.5143H-15.7734L-15.7589 17.5195Z" fill="#792490"/>
</g>
</svg>
