<svg width="49" height="49" viewBox="0 0 49 49" fill="none" xmlns="http://www.w3.org/2000/svg">
<mask id="mask0" mask-type="alpha" maskUnits="userSpaceOnUse" x="0" y="0" width="49" height="49">
<path d="M49 24.5C49 38.031 38.031 49 24.5 49C10.969 49 0 38.031 0 24.5C0 10.969 10.969 0 24.5 0C38.031 0 49 10.969 49 24.5Z" fill="#C4C4C4"/>
</mask>
<g mask="url(#mask0)">
<path d="M-15 36.729C-15 32.5804 -15 28.4317 -15 24.283C1.58904 24.2721 18.1781 24.262 34.7671 24.2527C44.7205 24.2527 54.674 24.2644 64.6274 24.2877C64.6274 28.4348 64.6274 32.5804 64.6274 36.7244L-15 36.729Z" fill="#FEFEFE"/>
<path d="M64.6274 24.2875C54.674 24.2735 44.7205 24.2619 34.7671 24.2525C18.1781 24.2525 1.58904 24.2627 -15 24.2829C-15 20.1902 -15 16.0975 -15 12.0049H64.6274V24.2875Z" fill="#989898"/>
<path d="M-15 36.729H64.6274V48.552C64.5278 48.657 64.4781 48.7177 64.4188 48.769C64.3596 48.8204 64.3051 48.895 64.2411 48.9044C63.928 48.9601 63.6112 48.9937 63.2931 49.0047C37.4822 49.0016 11.6728 48.993 -14.135 48.979C-14.43 48.938 -14.7199 48.8668 -15 48.7667V36.729Z" fill="#6C028F"/>
<path d="M64.6274 12.0143H-15V0H64.6274V12.0143Z" fill="#030202"/>
</g>
</svg>
