<svg width="49" height="49" viewBox="0 0 49 49" fill="none" xmlns="http://www.w3.org/2000/svg">
<mask id="mask0" mask-type="alpha" maskUnits="userSpaceOnUse" x="0" y="0" width="49" height="49">
<path d="M49 24.5C49 38.031 38.031 49 24.5 49C10.969 49 0 38.031 0 24.5C0 10.969 10.969 0 24.5 0C38.031 0 49 10.969 49 24.5Z" fill="#C4C4C4"/>
</mask>
<g mask="url(#mask0)">
<path d="M-15 16.4651L-14.9857 7.97778H64.9786L65 16.477C59.46 16.477 53.9224 16.5056 48.3824 16.5056L-15 16.4651Z" fill="#FF7C08"/>
<path d="M64.9501 40.8296V48.8789C63.3121 49.3788 -11.6122 49.5336 -14.95 49.0193V40.8367L64.9501 40.8296Z" fill="#6C028F"/>
<path d="M64.9786 7.96596L-14.9857 7.97786V0H64.9786V7.96596Z" fill="#EF1918"/>
<path d="M64.9929 24.5336C64.9833 27.2937 64.9722 30.053 64.9595 32.8115H-14.9643L-15 24.5217L64.9929 24.5336Z" fill="#32790D"/>
<path d="M-14.9644 32.8091H64.9642L64.9499 40.825H-14.9501L-14.9644 32.8091Z" fill="#0117EE"/>
<path d="M64.9929 24.5334L-15 24.5215V16.4651L48.3824 16.4937C53.9224 16.4937 59.46 16.4746 65 16.4651C64.9952 19.1553 64.9929 21.8448 64.9929 24.5334Z" fill="#FFEC22"/>
</g>
</svg>
