<svg id="Layer_1" data-name="Layer 1" xmlns="http://www.w3.org/2000/svg" viewBox="0 0 133 131"><path d="M66.43,115.34H29c-6.85,0-10.74-4-10.74-10.84q0-20.31,0-40.62c0-7.2,3.8-11,11-11,3.2,0,6.4,0,9.6,0a4.43,4.43,0,0,0,4.66-3.32c.89-2.58,1.71-5.19,2.6-7.77a4.39,4.39,0,0,1,4.65-3.33q15.81,0,31.62,0a4.34,4.34,0,0,1,4.5,3.25c.84,2.39,1.62,4.8,2.42,7.2,1,3.13,2.22,4,5.58,4s6.67,0,10,0a9.51,9.51,0,0,1,9.79,9.52q.14,21.61,0,43.23c0,5.78-4.2,9.69-10,9.71C91.92,115.36,79.18,115.34,66.43,115.34ZM93.07,82.23A26.58,26.58,0,1,0,66.45,108.7,26.54,26.54,0,0,0,93.07,82.23ZM105.34,59a3.7,3.7,0,0,0-3.68,3.81,3.69,3.69,0,0,0,7.38,0A3.73,3.73,0,0,0,105.34,59ZM66.69,66.31a15.89,15.89,0,1,0,15.75,16A15.92,15.92,0,0,0,66.69,66.31ZM31.87,30.1c-4.81,0-8.3,1.54-8.43,3s3.11,3.69,8.13,4.52c.21,4.33,1.84,7.44,3.32,7.53s3.68-3,4.21-7.83c3.83-.14,6.55-2,6.63-3.62S43,29.59,38.5,29.49c-.62-4.31-2.32-7.28-3.61-7.23S32.06,25.5,31.87,30.1ZM46.34,19.93c-2.63,0-4.53.85-4.6,1.65s1.7,2,4.44,2.47c.11,2.36,1,4.06,1.81,4.11s2-1.64,2.3-4.28c2.1-.07,3.58-1.11,3.63-2s-1.51-2.25-4-2.31c-.35-2.35-1.27-4-2-4S46.45,17.42,46.34,19.93Z"/></svg>