<svg id="Layer_1" data-name="Layer 1" xmlns="http://www.w3.org/2000/svg" viewBox="0 0 45 45"><path d="M16.94,10.44a2.69,2.69,0,0,1,1.76.66l12.1,9.4a3.13,3.13,0,0,1,.9,1.1A3.19,3.19,0,0,1,32,23a3.53,3.53,0,0,1-.3,1.4,2.58,2.58,0,0,1-.9.9L18.7,34.7a2.78,2.78,0,0,1-1.75.62,3,3,0,0,1-2.95-3V13.5a3,3,0,0,1,2.94-3.06m0-2h0A5,5,0,0,0,12,13.5V32.3a5,5,0,0,0,4.95,5,4.76,4.76,0,0,0,3-1l12-9.3a4.54,4.54,0,0,0,1.45-1.46l.12-.17.08-.2A5.43,5.43,0,0,0,34,23a5.17,5.17,0,0,0-.51-2.29A5.09,5.09,0,0,0,32,18.9L20,9.54a4.67,4.67,0,0,0-3-1.1Z"/></svg>