<svg id="Layer_1" data-name="Layer 1" xmlns="http://www.w3.org/2000/svg" viewBox="0 0 45 45"><path d="M22.6,7.6A3.41,3.41,0,0,1,26,11v7.4c0,.1,0,.1.1.2s.1.1.2.1h7.4a3.4,3.4,0,0,1,0,6.8H26.3c-.1,0-.1,0-.2.1s-.1.1-.1.2v7.4a3.4,3.4,0,0,1-6.8,0V25.8c0-.1,0-.1-.1-.2s-.1-.1-.2-.1H11.5a3.4,3.4,0,0,1,0-6.8h7.4c.1,0,.1,0,.2-.1s.1-.1.1-.2V11a3.41,3.41,0,0,1,3.4-3.4m0-2A5.43,5.43,0,0,0,17.2,11v5.7H11.5a5.4,5.4,0,0,0,0,10.8h5.7v5.7a5.4,5.4,0,0,0,10.8,0V27.5h5.7a5.4,5.4,0,0,0,0-10.8H28V11a5.43,5.43,0,0,0-5.4-5.4Z"/></svg>