<svg width="35" height="33" viewBox="0 0 35 33" fill="none" xmlns="http://www.w3.org/2000/svg">
<path d="M26.5271 10.4337C23.5076 10.4337 21.197 8.76974 19.1301 7.2799C18.3044 6.68546 17.5259 6.12335 16.7051 5.64829C12.6435 3.30037 7.32333 3.19342 2.10766 5.35729C1.40875 5.6458 0.610359 5.31501 0.319355 4.61859C0.030839 3.91968 0.361638 3.12129 1.05806 2.83028C7.06715 0.338101 13.2678 0.502257 18.073 3.28047C19.0132 3.82517 19.8862 4.45194 20.7294 5.06131C22.9405 6.65561 24.8507 8.03104 27.425 7.62811C29.3525 7.32716 30.9369 6.04376 32.3944 4.75538C32.9615 4.25545 33.8245 4.31017 34.3245 4.87477C34.8244 5.44185 34.7722 6.30491 34.2051 6.80484C32.5212 8.29219 30.5041 9.91385 27.8478 10.3292C27.3951 10.4013 26.9549 10.4337 26.5271 10.4337Z" fill="#BDBDBD"/>
<path d="M26.5271 17.3302C23.5076 17.3302 21.197 15.6662 19.1301 14.1764C18.3044 13.5819 17.5259 13.0198 16.7051 12.5448C12.6435 10.1969 7.32333 10.0899 2.10766 12.2538C1.40875 12.5423 0.610359 12.2115 0.319355 11.5151C0.030839 10.8162 0.361638 10.0178 1.05806 9.72677C7.06715 7.23459 13.2678 7.39874 18.073 10.177C19.0132 10.7217 19.8862 11.3484 20.7294 11.9578C22.9405 13.5521 24.8507 14.9275 27.425 14.5246C29.3525 14.2236 30.9369 12.9402 32.3944 11.6519C32.9615 11.1519 33.8245 11.2067 34.3245 11.7713C34.8244 12.3383 34.7722 13.2014 34.2051 13.7013C32.5212 15.1887 30.5041 16.8103 27.8478 17.2257C27.3951 17.2978 26.9549 17.3302 26.5271 17.3302Z" fill="#BDBDBD"/>
<path d="M26.5271 24.2276C23.5076 24.2276 21.197 22.5637 19.1301 21.0738C18.3044 20.4794 17.5259 19.9173 16.7051 19.4422C12.6435 17.0943 7.32333 16.9874 2.10766 19.1512C1.40875 19.4397 0.610359 19.109 0.319355 18.4125C0.030839 17.7136 0.361638 16.9152 1.05806 16.6242C7.06466 14.132 13.2678 14.2962 18.073 17.0744C19.0132 17.6191 19.8862 18.2459 20.7294 18.8553C22.9405 20.4496 24.8507 21.825 27.425 21.4221C29.3525 21.1211 30.9369 19.8377 32.3944 18.5493C32.9615 18.0494 33.8245 18.1041 34.3245 18.6687C34.8244 19.2358 34.7722 20.0989 34.2051 20.5988C32.5212 22.0861 30.5041 23.7078 27.8478 24.1232C27.3951 24.1928 26.9549 24.2276 26.5271 24.2276Z" fill="#BDBDBD"/>
<path d="M26.5271 31.1222C23.5076 31.1222 21.197 29.4582 19.1301 27.9684C18.3044 27.3739 17.5259 26.8118 16.7051 26.3368C12.6435 23.9888 7.32333 23.8819 2.10766 26.0458C1.40875 26.3343 0.610359 26.0035 0.319355 25.3071C0.030839 24.6082 0.361638 23.8098 1.05806 23.5188C7.06466 21.0266 13.2678 21.1907 18.073 23.9689C19.0132 24.5136 19.8862 25.1404 20.7294 25.7498C22.9405 27.3441 24.8507 28.7195 27.425 28.3166C29.3525 28.0156 30.9369 26.7322 32.3944 25.4439C32.9615 24.9439 33.8245 24.9962 34.3245 25.5632C34.8244 26.1303 34.7722 26.9934 34.2051 27.4933C32.5212 28.9807 30.5041 30.6023 27.8478 31.0177C27.3951 31.0898 26.9549 31.1222 26.5271 31.1222Z" fill="#BDBDBD"/>
<path d="M19.7133 31.788C19.6088 31.788 19.5019 31.7855 19.3949 31.7781C18.2209 31.6985 17.1316 31.1861 16.3282 30.3355C15.5223 29.4849 15.0771 28.3706 15.0721 27.2041C15.0721 25.2939 16.2411 23.6897 18.2035 22.9137C18.793 22.6873 19.4024 22.5754 20.0267 22.5754C20.5042 22.5754 20.9793 22.6426 21.4369 22.7744C21.4245 22.1028 21.4245 20.8443 21.4245 20.3469C21.4245 20.1976 21.427 20.1056 21.4294 19.9862C21.4319 19.7872 21.4369 19.5136 21.4369 18.7327V18.2253C21.4369 17.984 21.4245 17.6283 21.4096 17.1956C21.3797 16.2803 21.3374 15.0292 21.3623 13.7682C21.3623 13.2757 21.3623 12.5097 21.9965 12.1689C22.1681 12.0769 22.3522 12.0321 22.5487 12.0321C22.9442 12.0321 23.2998 12.2162 23.6754 12.4102C23.8097 12.4798 23.954 12.5544 24.1107 12.6241C24.7996 12.9151 25.5483 13.0668 26.3168 13.0668C26.5009 13.0668 26.6899 13.0569 26.8715 13.0394L26.9013 13.037C27.7221 12.9897 28.508 12.7783 29.2418 12.4102C30.3287 11.7461 30.8361 11.7461 31.0027 11.7461C31.3982 11.7461 31.6519 11.9078 31.7936 12.0446C32.2115 12.4276 32.1419 12.9723 32.0896 13.41C31.913 14.8302 31.8409 15.3724 31.7563 15.6585C31.4429 16.8921 30.7863 18.0039 29.8561 18.8794C28.4732 20.1404 26.9386 20.225 26.2024 20.2673C26.1328 20.2722 26.0731 20.2747 26.0208 20.2797C25.8492 20.2946 25.6726 20.2996 25.501 20.2996C25.1802 20.2996 24.8593 20.2747 24.5434 20.2275C24.536 21.2796 24.531 22.4461 24.526 23.6101C24.5186 24.9333 24.5136 26.254 24.5061 27.4006C24.5086 27.4478 24.5061 27.4976 24.5012 27.5448C24.3644 28.7686 23.76 29.8828 22.8049 30.6762C21.9368 31.3926 20.84 31.788 19.7133 31.788Z" fill="#BDBDBD"/>
<path d="M31.0027 12.4923C31.1146 12.4923 31.2091 12.5197 31.2763 12.5819C31.4155 12.7112 31.3932 12.945 31.3459 13.3156C31.1867 14.5915 31.1046 15.2307 31.035 15.4571C30.7589 16.5564 30.1719 17.5538 29.3437 18.3323C28.0304 19.5311 26.5182 19.4839 25.9586 19.5311C25.8069 19.5436 25.6527 19.5485 25.4985 19.5485C25.0831 19.5485 24.6702 19.5038 24.2648 19.4142C24.235 19.4068 24.2076 19.4043 24.1778 19.4043C24.1504 19.4043 24.1206 19.4068 24.0932 19.4142C24.036 19.4267 23.9838 19.4515 23.939 19.4888C23.8942 19.5237 23.8569 19.5709 23.832 19.6207C23.8072 19.6729 23.7947 19.7301 23.7947 19.7873C23.7798 22.093 23.7674 25.1174 23.7524 27.4206C23.7549 27.4305 23.7549 27.4429 23.7524 27.4529C23.6355 28.4851 23.1232 29.4327 22.3198 30.0993C21.5861 30.7086 20.6608 31.0394 19.7082 31.0394C19.6187 31.0394 19.5292 31.037 19.4396 31.0295C18.4597 30.9623 17.5394 30.5296 16.8679 29.8182C16.1963 29.1069 15.8183 28.1692 15.8158 27.1942C15.8158 25.488 16.94 24.2096 18.4746 23.6002C18.972 23.4087 19.4968 23.3142 20.0216 23.3142C20.4693 23.3142 20.9195 23.3838 21.3523 23.5231C21.4145 23.543 21.4791 23.5529 21.5463 23.5529C21.5811 23.5529 21.6159 23.5505 21.6508 23.5455C21.7502 23.5281 21.8448 23.4883 21.9268 23.4286C22.0089 23.3689 22.0736 23.2918 22.1184 23.2022C22.1631 23.1127 22.1855 23.0132 22.1855 22.9137C22.1681 22.3019 22.1681 20.8493 22.1681 20.342C22.1681 19.944 22.1805 19.9639 22.1805 18.7278C22.1805 18.7278 22.1805 18.4815 22.1805 18.2204C22.178 17.4593 22.0686 15.6212 22.1059 13.7782C22.1059 13.2683 22.1358 12.935 22.3472 12.8206C22.4094 12.7883 22.474 12.7734 22.5437 12.7734C22.8546 12.7734 23.26 13.0569 23.7972 13.3007C24.5931 13.6389 25.4487 13.8105 26.3118 13.8105C26.5207 13.8105 26.7296 13.8006 26.941 13.7807C27.8688 13.726 28.7741 13.4822 29.5999 13.0619C29.8063 12.935 30.5425 12.4923 31.0027 12.4923ZM31.0027 11C30.6271 11 29.9978 11.0796 28.8761 11.7561C28.2419 12.0695 27.5604 12.2511 26.8515 12.2909L26.8242 12.2933L26.7943 12.2958C26.6351 12.3108 26.471 12.3182 26.3118 12.3182C25.6502 12.3182 25.006 12.1889 24.3966 11.9327C24.2673 11.873 24.138 11.8059 24.0136 11.7412C23.5958 11.5248 23.1207 11.2811 22.5437 11.2786C22.2228 11.2786 21.9194 11.3532 21.6408 11.5024C20.6211 12.0546 20.6111 13.1987 20.6111 13.7608C20.5862 15.0367 20.6285 16.2928 20.6584 17.213C20.6733 17.6334 20.6857 17.9965 20.6857 18.2229V18.7253C20.6857 19.5013 20.6807 19.7699 20.6783 19.9664C20.6758 20.0883 20.6733 20.1853 20.6733 20.3395C20.6733 20.7971 20.6733 21.3518 20.6758 21.8567C20.4594 21.8318 20.2405 21.8194 20.0216 21.8194C19.3078 21.8194 18.6064 21.9487 17.9423 22.2049L17.9349 22.2074L17.9274 22.2098C15.7063 23.0903 14.3259 25.0005 14.3259 27.1917C14.3309 28.5572 14.8507 29.8506 15.7884 30.8405C16.7211 31.8279 17.9846 32.4223 19.3426 32.5144C19.4695 32.5218 19.5913 32.5268 19.7132 32.5268C21.014 32.5268 22.28 32.0716 23.2774 31.2434C24.3842 30.3256 25.0806 29.0372 25.2398 27.6146C25.2497 27.5399 25.2522 27.4603 25.2497 27.3808C25.2572 26.2366 25.2647 24.9209 25.2696 23.6052C25.2746 22.7297 25.2796 21.8567 25.2821 21.0309C25.3542 21.0334 25.4263 21.0334 25.4985 21.0334C25.69 21.0334 25.884 21.0259 26.0755 21.011C26.1252 21.006 26.1775 21.0036 26.2397 21.0011C26.9983 20.9588 28.7766 20.8618 30.346 19.4267L30.3535 19.4192L30.361 19.4117C31.3907 18.4417 32.1219 17.2081 32.4701 15.8426C32.5696 15.4919 32.6417 14.9348 32.8233 13.4922C32.8855 12.9848 32.9924 12.1367 32.2935 11.485C31.9577 11.1741 31.4976 11 31.0027 11Z" fill="white"/>
<path d="M10.7133 20.788C10.6088 20.788 10.5019 20.7855 10.3949 20.7781C9.22095 20.6985 8.13155 20.1861 7.32818 19.3355C6.52233 18.4849 6.07712 17.3706 6.07214 16.2041C6.07214 14.2939 7.24113 12.6897 9.20354 11.9137C9.79301 11.6873 10.4024 11.5754 11.0267 11.5754C11.5042 11.5754 11.9793 11.6426 12.4369 11.7744C12.4245 11.1028 12.4245 9.84431 12.4245 9.34686C12.4245 9.19763 12.427 9.10561 12.4294 8.98622C12.4319 8.78724 12.4369 8.51365 12.4369 7.73267V7.22527C12.4369 6.98401 12.4245 6.62834 12.4096 6.19557C12.3797 5.28028 12.3374 4.02921 12.3623 2.7682C12.3623 2.27573 12.3623 1.50967 12.9965 1.16892C13.1681 1.07689 13.3522 1.03212 13.5487 1.03212C13.9442 1.03212 14.2998 1.21618 14.6754 1.41018C14.8097 1.47982 14.954 1.55444 15.1107 1.62408C15.7996 1.91508 16.5483 2.0668 17.3168 2.0668C17.5009 2.0668 17.6899 2.05685 17.8715 2.03944L17.9013 2.03696C18.7221 1.9897 19.508 1.77829 20.2418 1.41018C21.3287 0.746094 21.8361 0.746094 22.0027 0.746094C22.3982 0.746094 22.6519 0.907762 22.7936 1.04456C23.2115 1.42759 23.1419 1.97229 23.0896 2.41004C22.913 3.83023 22.8409 4.37245 22.7563 4.65847C22.4429 5.89213 21.7863 7.00391 20.8561 7.87941C19.4732 9.14043 17.9386 9.22499 17.2024 9.26727C17.1328 9.27225 17.0731 9.27474 17.0208 9.27971C16.8492 9.29463 16.6726 9.29961 16.501 9.29961C16.1802 9.29961 15.8593 9.27474 15.5434 9.22748C15.536 10.2796 15.531 11.4461 15.526 12.6101C15.5186 13.9333 15.5136 15.254 15.5061 16.4006C15.5086 16.4478 15.5061 16.4976 15.5012 16.5448C15.3644 17.7686 14.76 18.8828 13.8049 19.6762C12.9368 20.3926 11.84 20.788 10.7133 20.788Z" fill="#BDBDBD"/>
<path d="M22.0027 1.49233C22.1146 1.49233 22.2091 1.51968 22.2763 1.58186C22.4155 1.7112 22.3932 1.945 22.3459 2.31559C22.1867 3.59153 22.1046 4.23074 22.035 4.45708C21.7589 5.55642 21.1719 6.55379 20.3437 7.33229C19.0304 8.53113 17.5182 8.48387 16.9586 8.53113C16.8069 8.54356 16.6527 8.54854 16.4985 8.54854C16.0831 8.54854 15.6702 8.50377 15.2648 8.41423C15.235 8.40677 15.2076 8.40428 15.1778 8.40428C15.1504 8.40428 15.1206 8.40677 15.0932 8.41423C15.036 8.42666 14.9838 8.45154 14.939 8.48884C14.8942 8.52366 14.8569 8.57092 14.832 8.62067C14.8072 8.6729 14.7947 8.7301 14.7947 8.78731C14.7798 11.093 14.7674 14.1174 14.7524 16.4206C14.7549 16.4305 14.7549 16.4429 14.7524 16.4529C14.6355 17.4851 14.1232 18.4327 13.3198 19.0993C12.5861 19.7086 11.6608 20.0394 10.7082 20.0394C10.6187 20.0394 10.5292 20.037 10.4396 20.0295C9.45967 19.9623 8.5394 19.5296 7.86785 18.8182C7.19631 18.1069 6.81825 17.1692 6.81577 16.1942C6.81577 14.488 7.93998 13.2096 9.47459 12.6002C9.97203 12.4087 10.4968 12.3142 11.0216 12.3142C11.4693 12.3142 11.9195 12.3838 12.3523 12.5231C12.4145 12.543 12.4791 12.5529 12.5463 12.5529C12.5811 12.5529 12.6159 12.5505 12.6508 12.5455C12.7502 12.5281 12.8448 12.4883 12.9268 12.4286C13.0089 12.3689 13.0736 12.2918 13.1184 12.2022C13.1631 12.1127 13.1855 12.0132 13.1855 11.9137C13.1681 11.3019 13.1681 9.84935 13.1681 9.34196C13.1681 8.944 13.1805 8.9639 13.1805 7.72776C13.1805 7.72776 13.1805 7.48152 13.1805 7.22037C13.178 6.45928 13.0686 4.62123 13.1059 2.77821C13.1059 2.26833 13.1358 1.93505 13.3472 1.82064C13.4094 1.7883 13.474 1.77338 13.5437 1.77338C13.8546 1.77338 14.26 2.05692 14.7972 2.30067C15.5931 2.63893 16.4487 2.81055 17.3118 2.81055C17.5207 2.81055 17.7296 2.8006 17.941 2.7807C18.8688 2.72598 19.7741 2.48223 20.5999 2.0619C20.8063 1.93505 21.5425 1.49233 22.0027 1.49233ZM22.0027 0C21.6271 0 20.9978 0.0795907 19.8761 0.756111C19.2419 1.0695 18.5604 1.25107 17.8515 1.29086L17.8242 1.29335L17.7943 1.29584C17.6351 1.31076 17.471 1.31822 17.3118 1.31822C16.6502 1.31822 16.006 1.18889 15.3966 0.932703C15.2673 0.87301 15.138 0.805856 15.0136 0.741188C14.5958 0.524801 14.1207 0.281055 13.5437 0.278567C13.2228 0.278567 12.9194 0.353184 12.6408 0.502416C11.6211 1.05458 11.6111 2.19869 11.6111 2.7608C11.5862 4.03674 11.6285 5.29278 11.6584 6.21305C11.6733 6.63339 11.6857 6.99652 11.6857 7.22285V7.72527C11.6857 8.50128 11.6807 8.7699 11.6783 8.96639C11.6758 9.08826 11.6733 9.18526 11.6733 9.33947C11.6733 9.79712 11.6733 10.3518 11.6758 10.8567C11.4594 10.8318 11.2405 10.8194 11.0216 10.8194C10.3078 10.8194 9.60641 10.9487 8.94233 11.2049L8.93487 11.2074L8.92741 11.2098C6.70633 12.0903 5.32593 14.0005 5.32593 16.1917C5.3309 17.5572 5.85073 18.8506 6.78841 19.8405C7.72111 20.8279 8.98461 21.4223 10.3426 21.5144C10.4695 21.5218 10.5913 21.5268 10.7132 21.5268C12.014 21.5268 13.28 21.0716 14.2774 20.2434C15.3842 19.3256 16.0806 18.0372 16.2398 16.6146C16.2497 16.5399 16.2522 16.4603 16.2497 16.3808C16.2572 15.2366 16.2647 13.9209 16.2696 12.6052C16.2746 11.7297 16.2796 10.8567 16.2821 10.0309C16.3542 10.0334 16.4263 10.0334 16.4985 10.0334C16.69 10.0334 16.884 10.0259 17.0755 10.011C17.1252 10.006 17.1775 10.0036 17.2397 10.0011C17.9983 9.95878 19.7766 9.86178 21.346 8.42666L21.3535 8.4192L21.361 8.41174C22.3907 7.44173 23.1219 6.20807 23.4701 4.8426C23.5696 4.4919 23.6417 3.93476 23.8233 2.49218C23.8855 1.98479 23.9924 1.13665 23.2935 0.485006C22.9577 0.174105 22.4976 0 22.0027 0Z" fill="white"/>
</svg>
