<svg xmlns="http://www.w3.org/2000/svg" viewBox="0 0 39 33.25" class="ionicon" width="39" height="33.25"><path d="M19.48,11.67a4.21,4.21,0,0,1-1.83,8,4.26,4.26,0,0,1-2.42-.76v.32a4.28,4.28,0,0,1-8.54,0v-.32A4.28,4.28,0,0,1,0,15.45a4.22,4.22,0,0,1,2.45-3.81A4.22,4.22,0,0,1,.07,7.9,4.28,4.28,0,0,1,4.36,3.64a4.23,4.23,0,0,1,2.4.75V4.07a4.28,4.28,0,0,1,8.54,0v.32A4.26,4.26,0,0,1,21.89,7.9,4.21,4.21,0,0,1,19.48,11.67ZM11,7.45a4.23,4.23,0,1,0,4.28,4.22A4.23,4.23,0,0,0,11,7.45Z"/><path d="M32.22,28.21A5.33,5.33,0,0,1,30.84,28a5.5,5.5,0,0,1-10.56,0,5.31,5.31,0,0,1-1.37.18,5.47,5.47,0,0,1-5.49-5.45h0A5.34,5.34,0,0,1,15,18.93a5.39,5.39,0,0,1-1.58-3.81,5.47,5.47,0,0,1,5.47-5.41,5.3,5.3,0,0,1,1.37.17,5.5,5.5,0,0,1,10.56,0,5.79,5.79,0,0,1,1.38-.17,5.46,5.46,0,0,1,5.48,5.44,5.34,5.34,0,0,1-1.56,3.78,5.31,5.31,0,0,1,1.58,3.8,5.47,5.47,0,0,1-5.45,5.48ZM25.57,15.92a3,3,0,1,0,3,3A3,3,0,0,0,25.57,15.92Z" style="stroke:#fff;stroke-width:2.42765709250992px"/></svg>