<svg xmlns="http://www.w3.org/2000/svg" viewBox="0 0 40 40" class="ionicon" width="40" height="40"><path d="M23.76,12.68a8,8,0,0,1,2.6.43,8.85,8.85,0,0,1,1.77.88,13.33,13.33,0,0,0,.6-5.62C28.11,3.69,24.19.46,20,1.15a7.94,7.94,0,0,0-6.1,5.41A7.39,7.39,0,0,0,6.61,3.31C2.38,4-.54,8.34.08,13c1.15,8.6,13.55,15.48,16.35,16.93-1.27-3.4-2-7.11-1-10.43A8.87,8.87,0,0,1,23.76,12.68Z"/><path d="M35.71,19.42a5.35,5.35,0,0,0-1.79-.31A5.8,5.8,0,0,0,29.73,21a6.55,6.55,0,0,0-4.16-5,5.66,5.66,0,0,0-1.8-.3A6.18,6.18,0,0,0,18,20.37c-2.06,7.37,6.73,18.57,6.73,18.57s13-3.71,15-11.12A6.88,6.88,0,0,0,35.71,19.42Z"/></svg>