<svg xmlns="http://www.w3.org/2000/svg" xmlns:xlink="http://www.w3.org/1999/xlink" viewBox="0 0 40 40" class="ionicon" width="40" height="40"><defs><clipPath id="clip-path"><rect width="40" height="40" style="fill:none"/></clipPath><linearGradient id="linear-gradient" x1="5.55" y1="36.41" x2="5.55" y2="32.42" gradientTransform="matrix(1, 0, 0, -1, 0, 40)" gradientUnits="userSpaceOnUse"><stop offset="0" stop-color="#9b51e0"/><stop offset="0.53" stop-color="#2a82ec"/><stop offset="1" stop-color="#28caed"/></linearGradient><linearGradient id="linear-gradient-2" x1="10.97" y1="39.85" x2="10.97" y2="35.26" xlink:href="#linear-gradient"/><linearGradient id="linear-gradient-3" x1="2.43" y1="30.46" x2="2.43" y2="27.52" xlink:href="#linear-gradient"/><linearGradient id="linear-gradient-4" x1="26.23" y1="40" x2="26.23" y2="25.23" xlink:href="#linear-gradient"/><linearGradient id="linear-gradient-5" x1="20.31" y1="38.83" x2="20.31" y2="29.45" xlink:href="#linear-gradient"/><linearGradient id="linear-gradient-6" x1="33.5" y1="37.66" x2="33.5" y2="0" xlink:href="#linear-gradient"/><linearGradient id="linear-gradient-7" x1="14.46" y1="35.31" x2="14.46" y2="30.59" xlink:href="#linear-gradient"/><linearGradient id="linear-gradient-8" x1="13.6" y1="29.07" x2="13.6" y2="0" xlink:href="#linear-gradient"/></defs><g style="clip-path:url(#clip-path)"><path d="M5.55,7.23a1.14,1.14,0,0,0,1.65,0,1.16,1.16,0,0,0,0-1.65L5.56,3.94A1.17,1.17,0,1,0,3.91,5.59Z" style="fill:url(#linear-gradient)"/><path d="M10.14,3.88a1.16,1.16,0,0,0,1.44.82,1.18,1.18,0,0,0,.83-1.43L11.8,1A1.15,1.15,0,0,0,10.37.2a1.18,1.18,0,0,0-.83,1.44Z" style="fill:url(#linear-gradient-2)"/><path d="M1,11.84a13.44,13.44,0,0,0,2.54.64,1.17,1.17,0,0,0,.3-2.3l-2.23-.6A1.17,1.17,0,1,0,1,11.84Z" style="fill:url(#linear-gradient-3)"/><path d="M28.06,14.77a1.31,1.31,0,0,1-.13-.55V1.8A1.79,1.79,0,0,0,26.13,0a1.74,1.74,0,0,0-1.72,1.75V14A4.12,4.12,0,0,1,28.06,14.77Z" style="fill:url(#linear-gradient-4)"/><path d="M22.07,10.55V2.93a1.76,1.76,0,1,0-3.52,0v7A4.08,4.08,0,0,1,22.07,10.55Z" style="fill:url(#linear-gradient-5)"/><path d="M39.06,18.31a2,2,0,0,0-2.77.58l-.38.57a1.17,1.17,0,0,1-2.14-.66V4.14a1.79,1.79,0,0,0-1.68-1.8,1.76,1.76,0,0,0-1.82,1.75V14.18a1.18,1.18,0,0,1-1.7,1.08,4,4,0,0,1,1,2.64V30.82a11.51,11.51,0,0,1-2.35,7v1A3.51,3.51,0,0,1,27,40h3.73a1.17,1.17,0,0,0,1.17-1.17V30.14l4-3.48c.16-.14-.09.21,3.46-5l.34-.5A2,2,0,0,0,39.06,18.31Z" style="fill:url(#linear-gradient-6)"/><path d="M16.21,9.41V6.48a1.78,1.78,0,0,0-1.69-1.79,1.74,1.74,0,0,0-1.81,1.75V8.67A4.13,4.13,0,0,1,16.21,9.41Z" style="fill:url(#linear-gradient-7)"/><path d="M27.21,17.91a1.76,1.76,0,0,0-3.51,0V22a1.19,1.19,0,0,1-1.11,1.2A1.17,1.17,0,0,1,21.36,22V13.83a1.72,1.72,0,0,0-1.73-1.72h-.12a1.77,1.77,0,0,0-1.76,1.77V22a1.17,1.17,0,1,1-2.33,0V12.73a1.76,1.76,0,1,0-3.51,0V22a1.18,1.18,0,0,1-1,1.19A1.17,1.17,0,0,1,9.56,22V14.83A1.76,1.76,0,0,0,7.8,13.06a1.72,1.72,0,0,0-1.67,1.72V27.53A1.17,1.17,0,0,1,4,28.19l-.49-.75A1.91,1.91,0,1,0,.31,29.55L3.85,34.8c.13.2-.16-.07,4.62,3.88v.15A1.17,1.17,0,0,0,9.64,40H23.69a1.17,1.17,0,0,0,1.17-1.17V37a9.11,9.11,0,0,0,2.34-6.12Z" style="fill:url(#linear-gradient-8)"/></g></svg>