<svg xmlns="http://www.w3.org/2000/svg" xmlns:xlink="http://www.w3.org/1999/xlink" viewBox="0 0 39 33.25" class="ionicon" width="39" height="33.25"><defs><linearGradient id="a" x1="21.86" y1="733.62" x2="0.07" y2="733.62" gradientTransform="translate(0 -722)" gradientUnits="userSpaceOnUse"><stop offset="0" stop-color="#ff26a8"/><stop offset="1" stop-color="#f2c94c"/></linearGradient><linearGradient id="b" x1="36.38" y1="740.9" x2="14.59" y2="740.9" xlink:href="#a"/></defs><path d="M19.42,11.63a4.2,4.2,0,0,1-1.82,8,4.28,4.28,0,0,1-2.42-.76v.32a4.26,4.26,0,0,1-8.51,0v-.32A4.27,4.27,0,0,1,0,15.4a4.22,4.22,0,0,1,2.44-3.8A4.19,4.19,0,0,1,.07,7.87a4.27,4.27,0,0,1,6.67-3.5V4.05a4.26,4.26,0,0,1,8.51,0v.32a4.25,4.25,0,0,1,5.89,1.26,4.09,4.09,0,0,1-1.72,6ZM11,7.42a4.22,4.22,0,1,0,4.26,4.21A4.23,4.23,0,0,0,11,7.42Z" style="fill:url(#a)"/><path d="M32.12,28.12a5.31,5.31,0,0,1-1.37-.18,5.48,5.48,0,0,1-10.53,0,5.31,5.31,0,0,1-1.37.18,5.45,5.45,0,0,1-5.47-5.43h0A5.33,5.33,0,0,1,15,18.87a5.35,5.35,0,0,1-1.58-3.8,5.45,5.45,0,0,1,5.45-5.39,5.78,5.78,0,0,1,1.37.17,5.48,5.48,0,0,1,10.53,0,5.78,5.78,0,0,1,1.37-.17,5.45,5.45,0,0,1,5.47,5.42A5.32,5.32,0,0,1,36,18.87a5.34,5.34,0,0,1,1.58,3.79,5.44,5.44,0,0,1-5.44,5.46ZM25.49,15.87a3,3,0,1,0,3,3A3,3,0,0,0,25.49,15.87Z" style="stroke:#fff;stroke-width:2.42046856880188px;fill:url(#b)"/></svg>