<svg id="Layer_1" data-name="Layer 1" xmlns="http://www.w3.org/2000/svg" viewBox="0 0 45 45"><path d="M19.16,9.51a3,3,0,0,1,2.94,3.06v7l12.1-9.4a2.8,2.8,0,0,1,1.74-.61,3,3,0,0,1,3,3.11v19a3,3,0,0,1-2.95,3,2.78,2.78,0,0,1-1.75-.62l-12.1-9.4v7a3,3,0,0,1-3,3,2.78,2.78,0,0,1-1.75-.62L5.3,24.67a3.13,3.13,0,0,1-.9-1.1,3.53,3.53,0,0,1-.3-1.4,3.19,3.19,0,0,1,.3-1.4,3.13,3.13,0,0,1,.9-1.1l12.1-9.5a2.69,2.69,0,0,1,1.76-.66m0-2a4.66,4.66,0,0,0-3,1.11L4.06,18.1a5.14,5.14,0,0,0-1.45,1.78,5.2,5.2,0,0,0-.51,2.29,5.43,5.43,0,0,0,.44,2.14l0,.08,0,.08a5.14,5.14,0,0,0,1.49,1.8l12.07,9.38a4.76,4.76,0,0,0,3,1,5,5,0,0,0,5-5V28.76L33,35.65a4.76,4.76,0,0,0,3,1,5,5,0,0,0,4.95-5v-19a5,5,0,0,0-5-5.11,4.8,4.8,0,0,0-3,1L24.1,15.49V12.57a5,5,0,0,0-4.94-5.06Z"/></svg>