<svg width="46" height="46" viewBox="0 0 46 46" fill="none" xmlns="http://www.w3.org/2000/svg">
<path d="M23 25.875C18.9172 25.875 15.4823 28.2178 13.8175 31.625H32.1825C30.5177 28.2178 27.0828 25.875 23 25.875V25.875Z" fill="url(#paint0_linear)"/>
<path d="M23 4.3125C12.6287 4.3125 4.3125 12.7219 4.3125 23C4.3125 33.2781 12.6287 41.6875 23 41.6875C33.3713 41.6875 41.6875 33.2781 41.6875 23C41.6875 12.7219 33.2782 4.3125 23 4.3125ZM23 37.95C14.7777 37.95 8.04964 31.2222 8.04964 23C8.04964 14.7777 14.7778 8.05 23 8.05C31.2222 8.05 37.9504 14.7777 37.9504 23C37.9504 31.2223 31.2223 37.95 23 37.95Z" fill="url(#paint1_linear)"/>
<path d="M29.5406 21.1316C31.1293 21.1316 32.3438 19.9171 32.3438 18.3285C32.3438 16.7399 31.1292 15.5254 29.5406 15.5254C27.952 15.5254 26.7375 16.7399 26.7375 18.3285C26.7375 19.9171 27.952 21.1316 29.5406 21.1316ZM16.4593 21.1316C18.048 21.1316 19.2625 19.9171 19.2625 18.3285C19.2625 16.7399 18.0479 15.5254 16.4593 15.5254C14.8706 15.5254 13.6561 16.7399 13.6561 18.3285C13.6561 19.9171 14.8707 21.1316 16.4593 21.1316Z" fill="url(#paint2_linear)"/>
<defs>
<linearGradient id="paint0_linear" x1="23" y1="25.875" x2="23" y2="31.625" gradientUnits="userSpaceOnUse">
<stop stop-color="#9B51E0"/>
<stop offset="0.53125" stop-color="#2A82EC"/>
<stop offset="1" stop-color="#28CAED"/>
</linearGradient>
<linearGradient id="paint1_linear" x1="23" y1="4.3125" x2="23" y2="41.6875" gradientUnits="userSpaceOnUse">
<stop stop-color="#9B51E0"/>
<stop offset="0.53125" stop-color="#2A82EC"/>
<stop offset="1" stop-color="#28CAED"/>
</linearGradient>
<linearGradient id="paint2_linear" x1="23" y1="15.5254" x2="23" y2="21.1316" gradientUnits="userSpaceOnUse">
<stop stop-color="#9B51E0"/>
<stop offset="0.53125" stop-color="#2A82EC"/>
<stop offset="1" stop-color="#28CAED"/>
</linearGradient>
</defs>
</svg>
