<svg id="Layer_1" data-name="Layer 1" xmlns="http://www.w3.org/2000/svg" viewBox="0 0 133 131"><path d="M91.28,29.16a27.72,27.72,0,0,1-11,3,26.48,26.48,0,0,1-13-2c-2.73-1.25-4.63-2.74-6-2-.88.48-1,1.87-1,4-.15,7.69.3,15.36.31,18.54,0,1.09,0,2.12,0,2.12,0,5.16-.05,5.08-.05,6.74,0,2.11,0,8.18.07,10.73a2.64,2.64,0,0,1-3.44,2.55,17.77,17.77,0,0,0-11.9.32c-6.35,2.54-11,7.88-11,15a16.11,16.11,0,0,0,15,16A16.83,16.83,0,0,0,67.11,89.23a.61.61,0,0,0,0-.14c.06-9.62.11-22.24.17-31.86a1.58,1.58,0,0,1,1.94-1.55,23.67,23.67,0,0,0,7,.48c2.31-.19,8.57,0,14-5a24.82,24.82,0,0,0,7-12c.29-.95.63-3.61,1.29-8.94.19-1.54.29-2.52-.29-3.06C96.81,25.8,92.35,28.5,91.28,29.16Z"/></svg>