<?xml version="1.0" encoding="utf-8"?>
<!-- Generator: Adobe Illustrator 24.1.1, SVG Export Plug-In . SVG Version: 6.00 Build 0)  -->
<svg version="1.1" id="Layer_1" xmlns="http://www.w3.org/2000/svg" xmlns:xlink="http://www.w3.org/1999/xlink" x="0px" y="0px"
	 viewBox="0 0 45 45" style="enable-background:new 0 0 45 45;" xml:space="preserve">
<path d="M20.2,24.5l11.4,8.9c1.8,1.4,4.4,0.1,4.4-2.3V13.4c0-2.4-2.6-3.7-4.4-2.3L20.2,20c-0.3,0.3-0.6,0.6-0.8,1
	c-0.2,0.4-0.3,0.8-0.3,1.3c0,0.4,0.1,0.9,0.3,1.3C19.6,23.9,19.9,24.3,20.2,24.5z M13.2,34.8c2.1,0,3.7-1.6,3.7-3.5V13
	c0-1.9-1.7-3.5-3.7-3.5S9.5,11.1,9.5,13v18.3C9.5,33.3,11.1,34.8,13.2,34.8z"/>
</svg>
