<svg id="Layer_1" data-name="Layer 1" xmlns="http://www.w3.org/2000/svg" viewBox="0 0 45 45"><path d="M13.2,9.5A3.65,3.65,0,0,1,16.9,13V31.3a3.59,3.59,0,0,1-3.7,3.5,3.53,3.53,0,0,1-3.7-3.5V13a3.65,3.65,0,0,1,3.7-3.5m20,1A2.81,2.81,0,0,1,36,13.4V31.1A2.81,2.81,0,0,1,33.24,34a2.63,2.63,0,0,1-1.64-.58L20.2,24.5a3.45,3.45,0,0,1-.8-.9,3.08,3.08,0,0,1-.3-1.3,2.77,2.77,0,0,1,.3-1.3,3.92,3.92,0,0,1,.8-1l11.4-8.9a2.63,2.63,0,0,1,1.64-.58m-20-3A5.68,5.68,0,0,0,7.5,13V31.3a5.54,5.54,0,0,0,5.7,5.5,5.61,5.61,0,0,0,5.7-5.5V26l.11.08L30.37,35a4.66,4.66,0,0,0,2.87,1A4.82,4.82,0,0,0,38,31.1V13.4a4.82,4.82,0,0,0-4.76-4.88,4.66,4.66,0,0,0-2.87,1L19,18.42l-.07.06V13a5.68,5.68,0,0,0-5.7-5.5Z"/></svg>