<svg id="Layer_1" data-name="Layer 1" xmlns="http://www.w3.org/2000/svg" viewBox="0 0 45 45"><path d="M31.8,9.5A3.65,3.65,0,0,1,35.5,13V31.3a3.53,3.53,0,0,1-3.7,3.5,3.59,3.59,0,0,1-3.7-3.5V13a3.65,3.65,0,0,1,3.7-3.5m-20,1a2.63,2.63,0,0,1,1.64.58L24.8,20a3.92,3.92,0,0,1,.8,1,2.77,2.77,0,0,1,.3,1.3,3.08,3.08,0,0,1-.3,1.3,3.45,3.45,0,0,1-.8.9L13.4,33.4a2.63,2.63,0,0,1-1.64.58A2.81,2.81,0,0,1,9,31.1V13.4a2.81,2.81,0,0,1,2.76-2.88m20-3A5.68,5.68,0,0,0,26.1,13v5.48L26,18.42l-11.4-8.9a4.66,4.66,0,0,0-2.87-1h0A4.82,4.82,0,0,0,7,13.4V31.1A4.82,4.82,0,0,0,11.76,36a4.66,4.66,0,0,0,2.87-1L26,26.11,26.1,26V31.3a5.61,5.61,0,0,0,5.7,5.5,5.54,5.54,0,0,0,5.7-5.5V13a5.68,5.68,0,0,0-5.7-5.5Z"/></svg>