<svg width="30" height="31" viewBox="0 0 30 31" fill="none" xmlns="http://www.w3.org/2000/svg">
<g clip-path="url(#clip0)">
<path d="M18.4498 24.0599C17.8112 24.6437 17.1597 25.1311 16.4507 25.5393C14.8022 26.4873 13.0317 27.0074 11.1247 27.0023C8.899 26.9965 6.8517 26.3788 5.05201 25.0608C3.46105 23.8954 2.22187 22.4125 1.32397 20.6506C0.896782 19.8121 0.546561 18.9434 0.316449 18.0311C0.0906129 17.1355 0.0120951 16.219 0.00121142 15.2981C-0.0431006 11.5421 1.12806 8.20665 3.54423 5.33454C5.83175 2.61479 8.74351 0.907612 12.2411 0.272473C16.7139 -0.539913 20.7738 0.473043 24.3402 3.2818C27.3301 5.63656 29.1671 8.73296 29.777 12.4933C30.5668 17.3656 29.2569 21.6553 25.9253 25.2885C23.6534 27.7657 20.8084 29.2428 17.4963 29.8146C17.1714 29.8706 16.8441 29.9168 16.5164 29.953C16.1883 29.9887 15.8583 30.0062 15.524 30.0179C17.1651 29.7497 18.465 28.8366 19.7368 27.8474C21.1326 26.7613 22.324 25.4996 23.2406 23.9864C24.3565 22.1436 24.9944 20.1452 25.1242 17.993C25.3015 15.0552 24.6224 12.3164 23.0602 9.82987C21.6616 7.60417 19.6233 6.20212 17.0575 5.649C14.0159 4.99326 11.2573 5.68009 8.85546 7.65586C6.98658 9.19357 5.85157 11.1907 5.50718 13.5875C5.06833 16.6423 5.91065 19.3356 8.00926 21.6017C9.55046 23.2661 11.4745 24.2492 13.724 24.5469C15.2963 24.7552 16.8503 24.6491 18.3487 24.0719C18.3654 24.0649 18.3857 24.0669 18.4498 24.0599Z" fill="#BDBDBD"/>
<path d="M15.0649 9.18941C18.2593 9.13032 20.876 11.8932 20.8624 15.0802C20.8488 18.2345 18.2018 20.8629 15.009 20.8699C11.7944 20.8769 9.15785 18.2431 9.15979 15.0269C9.16173 11.7805 11.7828 9.18941 15.0649 9.18941Z" fill="#BDBDBD"/>
</g>
<defs>
<clipPath id="clip0">
<rect width="30" height="30.0171" fill="white"/>
</clipPath>
</defs>
</svg>
