<svg xmlns="http://www.w3.org/2000/svg" xmlns:xlink="http://www.w3.org/1999/xlink" viewBox="0 0 512 512"><defs><linearGradient id="a" x1="212.54" y1="473.4" x2="337.81" y2="62.71" gradientTransform="matrix(1, 0, 0, -1, 0, 514)" gradientUnits="userSpaceOnUse"><stop offset="0" stop-color="#471b74"/><stop offset="0.57" stop-color="#5d148c"/><stop offset="1" stop-color="#aa2986"/></linearGradient></defs><path d="M237.91,441.64,256,459l18.09-17.31,25.44-24.34.09-.08.08-.08,4.57-4.46c42.72-41.59,80.13-78,106.81-112.78,28-36.51,46.53-74.1,46.53-117.72,0-70.86-52.25-129.13-122.66-129.13-29.29,0-56.9,10.62-78.95,28.49C234,63.67,206.34,53.05,177.06,53.05c-70.42,0-122.67,58.27-122.67,129.13,0,43.62,18.53,81.21,46.53,117.71C127.6,334.68,165,371.1,207.73,412.69c1.52,1.47,3,3,4.57,4.45l.08.08.09.08Z" style="stroke:#fff;stroke-width:52.34379774751103px;fill:url(#a)"/></svg>