<svg xmlns="http://www.w3.org/2000/svg" viewBox="0 0 50 36.65" width="50" height="50" class="ionicon"><path d="M1,21.14a1,1,0,0,0-1,1v4.82a1,1,0,0,0,1,1,1,1,0,0,0,1-1V22.1A1,1,0,0,0,1,21.14Z" transform="translate(0 -6.67)"/><path d="M5.78,17.19a1,1,0,0,0-1,1V31.51a1,1,0,1,0,1.92,0V18.16A1,1,0,0,0,5.78,17.19Z" transform="translate(0 -6.67)"/><path d="M10.58,10.53a1,1,0,0,0-1,1v27a1,1,0,1,0,1.92,0v-27A1,1,0,0,0,10.58,10.53Z" transform="translate(0 -6.67)"/><path d="M15.38,15.36a1,1,0,0,0-1,1V32.71a1,1,0,1,0,1.92,0V16.32A1,1,0,0,0,15.38,15.36Z" transform="translate(0 -6.67)"/><path d="M29.9,13a1,1,0,0,0-1,1V35.69a1,1,0,0,0,1.92,0V14A1,1,0,0,0,29.9,13Z" transform="translate(0 -6.67)"/><path d="M39.42,14.4a1,1,0,0,0-1,1V34.65a1,1,0,1,0,1.92,0V15.36A1,1,0,0,0,39.42,14.4Z" transform="translate(0 -6.67)"/><path d="M44.24,19.21a1,1,0,0,0-1,1v9.64a1,1,0,1,0,1.92,0V20.18A1,1,0,0,0,44.24,19.21Z" transform="translate(0 -6.67)"/><path d="M34.62,6.67a1,1,0,0,0-1,1V42.36a1,1,0,1,0,1.92,0V7.64A1,1,0,0,0,34.62,6.67Z" transform="translate(0 -6.67)"/><path d="M20.2,22.1a1,1,0,0,0-1,1v3.86a1,1,0,1,0,1.92,0V23.08A1,1,0,0,0,20.2,22.1Z" transform="translate(0 -6.67)"/><path d="M49,21.78a1,1,0,0,0-1,1v4.18a1,1,0,1,0,1.92,0V22.74A1,1,0,0,0,49,21.78Z" transform="translate(0 -6.67)"/><path d="M24.92,20a1,1,0,0,0-1,1v7.85a1,1,0,0,0,1.93,0V20.91A1,1,0,0,0,24.92,20Z" transform="translate(0 -6.67)"/></svg>