<svg xmlns="http://www.w3.org/2000/svg" viewBox="0 0 512 512"><path d="M262.85,458.54v-99.9a7.75,7.75,0,0,0-4.63-7.09,8,8,0,0,0-3.08-.62,7.64,7.64,0,0,0-5.25,2.07A51.69,51.69,0,0,1,223,366.45c-6.17,1-27.77,3.09-42.43-13-13.67-15-10.8-34.56-10.43-36.73a45.77,45.77,0,0,1,18.51-29,47.78,47.78,0,0,1,34.47-7.9,49.5,49.5,0,0,1,26.64,13.33,7.71,7.71,0,0,0,13.08-5.53V242.58A84.31,84.31,0,0,0,364.44,137.46a7.67,7.67,0,0,0-1.74-3.14,7.83,7.83,0,0,0-3-2,7.75,7.75,0,0,0-3.57-.45,7.88,7.88,0,0,0-3.38,1.22,107,107,0,0,1-89.93,13.36V114.35A121.11,121.11,0,0,1,489,174.56C489.22,300.32,306,429.81,262.85,458.54Zm-15.43-84.65a65.45,65.45,0,0,1-21.88,7.81c-8.21,1.32-36.45,4-56.35-17.87-18.18-20-15.06-44.9-14.23-49.69a61.31,61.31,0,0,1,24.69-38.94,63.42,63.42,0,0,1,67.89-2.9V232.18A7.76,7.76,0,0,1,258,225a68.86,68.86,0,0,0,93.66-73.17,122.18,122.18,0,0,1-99,7.41,7.68,7.68,0,0,1-5.13-7.25V111.82a121.28,121.28,0,0,0-103.38-58H144A121,121,0,0,0,23,175.11c0,107.46,157.67,236.83,224.54,282.07Z"/></svg>