<svg xmlns="http://www.w3.org/2000/svg" viewBox="0 0 50 50" width="50" height="50" class="ionicon"><path d="M6,43.11H.86A.86.86,0,0,0,0,44v5.18A.85.85,0,0,0,.86,50H6a.86.86,0,0,0,.85-.86V44A.85.85,0,0,0,6,43.11Z" transform="translate(0 0)"/><path d="M6,34.48H.86a.86.86,0,0,0-.86.86v5.18a.85.85,0,0,0,.86.86H6a.86.86,0,0,0,.85-.86V35.34A.86.86,0,0,0,6,34.48Z" transform="translate(0 0)"/><path d="M14.66,34.48H9.48a.86.86,0,0,0-.86.86v5.18a.85.85,0,0,0,.86.86h5.18a.86.86,0,0,0,.86-.86V35.34A.86.86,0,0,0,14.66,34.48Z" transform="translate(0 0)"/><path d="M6,25.86H.86a.86.86,0,0,0-.86.86v5.17a.85.85,0,0,0,.86.86H6a.86.86,0,0,0,.85-.86V26.72A.86.86,0,0,0,6,25.86Z" transform="translate(0 0)"/><path d="M6,17.25H.86a.86.86,0,0,0-.86.86v5.17a.85.85,0,0,0,.86.86H6a.86.86,0,0,0,.85-.86V18.11A.85.85,0,0,0,6,17.25Z" transform="translate(0 0)"/><path d="M14.66,25.86H9.48a.86.86,0,0,0-.86.86v5.17a.85.85,0,0,0,.86.86h5.18a.86.86,0,0,0,.86-.86V26.72A.86.86,0,0,0,14.66,25.86Z" transform="translate(0 0)"/><path d="M14.66,17.25H9.48a.86.86,0,0,0-.86.86v5.17a.85.85,0,0,0,.86.86h5.18a.86.86,0,0,0,.86-.86V18.11A.85.85,0,0,0,14.66,17.25Z" transform="translate(0 0)"/><path d="M6,8.62H.86A.86.86,0,0,0,0,9.48v5.18a.85.85,0,0,0,.86.86H6a.86.86,0,0,0,.85-.86V9.48A.85.85,0,0,0,6,8.62Z" transform="translate(0 0)"/><path d="M31.89,25.86H26.72a.86.86,0,0,0-.86.86v5.17a.85.85,0,0,0,.86.86h5.17a.86.86,0,0,0,.86-.86V26.72A.86.86,0,0,0,31.89,25.86Z" transform="translate(0 0)"/><path d="M31.89,17.25H26.72a.86.86,0,0,0-.86.86v5.17a.85.85,0,0,0,.86.86h5.17a.86.86,0,0,0,.86-.86V18.11A.85.85,0,0,0,31.89,17.25Z" transform="translate(0 0)"/><path d="M31.89,8.62H26.72a.86.86,0,0,0-.86.86v5.18a.85.85,0,0,0,.86.86h5.17a.86.86,0,0,0,.86-.86V9.48A.85.85,0,0,0,31.89,8.62Z" transform="translate(0 0)"/><path d="M49.14,25.86H44a.86.86,0,0,0-.85.86v5.17a.85.85,0,0,0,.85.86h5.18a.86.86,0,0,0,.86-.86V26.72A.86.86,0,0,0,49.14,25.86Z" transform="translate(0 0)"/><path d="M49.14,17.25H44a.86.86,0,0,0-.85.86v5.17a.85.85,0,0,0,.85.86h5.18a.86.86,0,0,0,.86-.86V18.11A.85.85,0,0,0,49.14,17.25Z" transform="translate(0 0)"/><path d="M49.14,8.62H44a.86.86,0,0,0-.85.86v5.18a.85.85,0,0,0,.85.86h5.18a.86.86,0,0,0,.86-.86V9.48A.85.85,0,0,0,49.14,8.62Z" transform="translate(0 0)"/><path d="M49.14,0H44a.86.86,0,0,0-.85.86V6a.85.85,0,0,0,.85.85h5.18A.86.86,0,0,0,50,6V.86A.86.86,0,0,0,49.14,0Z" transform="translate(0 0)"/><path d="M31.89,34.48H26.72a.86.86,0,0,0-.86.86v5.18a.85.85,0,0,0,.86.86h5.17a.86.86,0,0,0,.86-.86V35.34A.86.86,0,0,0,31.89,34.48Z" transform="translate(0 0)"/><path d="M40.52,34.48H35.34a.86.86,0,0,0-.86.86v5.18a.85.85,0,0,0,.86.86h5.18a.86.86,0,0,0,.86-.86V35.34A.86.86,0,0,0,40.52,34.48Z" transform="translate(0 0)"/><path d="M40.52,25.86H35.34a.86.86,0,0,0-.86.86v5.17a.85.85,0,0,0,.86.86h5.18a.86.86,0,0,0,.86-.86V26.72A.86.86,0,0,0,40.52,25.86Z" transform="translate(0 0)"/><path d="M49.14,34.48H44a.86.86,0,0,0-.85.86v5.18a.85.85,0,0,0,.85.86h5.18a.86.86,0,0,0,.86-.86V35.34A.86.86,0,0,0,49.14,34.48Z" transform="translate(0 0)"/><path d="M14.66,43.11H9.48a.86.86,0,0,0-.86.85v5.18a.85.85,0,0,0,.86.86h5.18a.86.86,0,0,0,.86-.86V44A.85.85,0,0,0,14.66,43.11Z" transform="translate(0 0)"/><path d="M23.27,43.11H18.1a.86.86,0,0,0-.86.85v5.18a.85.85,0,0,0,.86.86h5.17a.86.86,0,0,0,.86-.86V44A.85.85,0,0,0,23.27,43.11Z" transform="translate(0 0)"/><path d="M23.27,34.48H18.1a.86.86,0,0,0-.86.86v5.18a.85.85,0,0,0,.86.86h5.17a.86.86,0,0,0,.86-.86V35.34A.85.85,0,0,0,23.27,34.48Z" transform="translate(0 0)"/><path d="M31.89,43.11H26.72a.86.86,0,0,0-.86.85v5.18a.85.85,0,0,0,.86.86h5.17a.86.86,0,0,0,.86-.86V44A.85.85,0,0,0,31.89,43.11Z" transform="translate(0 0)"/><path d="M40.52,43.11H35.34a.86.86,0,0,0-.86.85v5.18a.85.85,0,0,0,.86.86h5.18a.86.86,0,0,0,.86-.86V44A.85.85,0,0,0,40.52,43.11Z" transform="translate(0 0)"/><path d="M49.14,43.11H44a.86.86,0,0,0-.85.85v5.18A.85.85,0,0,0,44,50h5.18a.86.86,0,0,0,.86-.86V44A.85.85,0,0,0,49.14,43.11Z" transform="translate(0 0)"/></svg>