<svg xmlns="http://www.w3.org/2000/svg" viewBox="0 0 512 512"><path d="M257.1,51.27a183.28,183.28,0,0,0-178,237.64,630.12,630.12,0,0,1,78,24.83,723.14,723.14,0,0,1,99.51,49.59,484.75,484.75,0,0,1,91.75-48,457,457,0,0,1,76.39-22.47l2.2-.46A183.11,183.11,0,0,0,257.1,51.27Zm-5,257.09a59.93,59.93,0,1,1,23-4.13A59.91,59.91,0,0,1,252.13,308.36Zm236.39,14.3q-4.68,18-9.39,36.06a14.66,14.66,0,0,1-11.85,10.77,311.13,311.13,0,0,0-109.07,39.16,307.13,307.13,0,0,0-57.78,44.14,14.68,14.68,0,0,1-6.76,3.76,152,152,0,0,1-36.6,4.2h-2.14a152,152,0,0,1-36.61-4.2,14.73,14.73,0,0,1-6.76-3.76,306.81,306.81,0,0,0-57.78-44.14A311,311,0,0,0,44.72,369.49a14.59,14.59,0,0,1-11.85-10.77q-4.68-18.06-9.39-36.06a14.71,14.71,0,0,1-.07-7.19,14.86,14.86,0,0,1,3.35-6.36,14.65,14.65,0,0,1,13.1-4.69q7.2,1.11,15.34,2.55a455.62,455.62,0,0,1,112.07,33.87,479.57,479.57,0,0,1,85.93,50.91,4.7,4.7,0,0,0,1,.55h.34a4.58,4.58,0,0,0,.81.14h1.22a4.32,4.32,0,0,0,.8-.14h.35a4.7,4.7,0,0,0,1-.55,479.49,479.49,0,0,1,85.92-50.91A455.83,455.83,0,0,1,456.74,307q8.14-1.47,15.34-2.55a14.69,14.69,0,0,1,16.44,18.24Z"/></svg>