<svg xmlns="http://www.w3.org/2000/svg" xmlns:xlink="http://www.w3.org/1999/xlink" viewBox="0 0 512 512"><defs><linearGradient id="a" x1="248.35" y1="483.16" x2="424.35" y2="34.58" gradientTransform="matrix(1, 0, 0, -1, 0, 514)" gradientUnits="userSpaceOnUse"><stop offset="0" stop-color="#471b74"/><stop offset="0.57" stop-color="#5d148c"/><stop offset="1" stop-color="#aa2986"/></linearGradient><linearGradient id="b" x1="126.35" y1="493.26" x2="297.66" y2="40.45" xlink:href="#a"/></defs><path d="M489,175.93a118.65,118.65,0,0,0-221-59.32v29.25a104.29,104.29,0,0,0,85.94-13.37,10.26,10.26,0,0,1,9.18-.94,10.28,10.28,0,0,1,6.24,6.78,86.77,86.77,0,0,1-101.51,108.6v41.75a10.27,10.27,0,0,1-6.27,9.43,10.3,10.3,0,0,1-11.16-2.05A47.09,47.09,0,0,0,225,283.41a45.55,45.55,0,0,0-32.63,7.48,41.39,41.39,0,0,0-7.61,61.47c13.83,15.37,34.18,13.17,40.14,12.19a49.48,49.48,0,0,0,25.7-12.75,10.24,10.24,0,0,1,15.6,1.84,10.2,10.2,0,0,1,1.67,5.64v94.77C313.12,423.67,489.1,297.09,489,175.93Z" style="fill:url(#a)"/><path d="M349,157.23a126.16,126.16,0,0,1-44.17,12.55A127.71,127.71,0,0,1,250.69,163a10.4,10.4,0,0,1-5-3.75,10.19,10.19,0,0,1-1.89-5.91V114.1A119.57,119.57,0,0,0,32.05,131.24a118.18,118.18,0,0,0-9,45.48C23,277,165.13,400.22,243.81,454.05V379.76a68.57,68.57,0,0,1-19,6.06c-8.53,1.39-38.07,4.17-59-18.66a62.13,62.13,0,0,1,11-92.55,67,67,0,0,1,47.95-11,64.37,64.37,0,0,1,19.14,6v-36A10.36,10.36,0,0,1,257.87,224a67.91,67.91,0,0,0,67.24-10.64,66.27,66.27,0,0,0,23.9-56.1Z" style="fill:url(#b)"/></svg>