<?xml version="1.0" standalone="no"?>
<!DOCTYPE svg PUBLIC "-//W3C//DTD SVG 20010904//EN"
 "http://www.w3.org/TR/2001/REC-SVG-20010904/DTD/svg10.dtd">
<svg version="1.0" xmlns="http://www.w3.org/2000/svg"
 width="520.000000pt" height="520.000000pt" viewBox="0 0 520.000000 520.000000"
 preserveAspectRatio="xMidYMid meet">
<metadata>
Created by potrace 1.11, written by Peter Selinger 2001-2013
</metadata>
<g transform="translate(0.000000,520.000000) scale(0.100000,-0.100000)"
fill="#000000" stroke="none">
<path d="M2429 4597 c-2 -3 -35 -7 -74 -11 -61 -6 -120 -14 -204 -31 -232 -45
-507 -157 -696 -283 -132 -88 -310 -265 -394 -391 -167 -252 -251 -533 -256
-856 -2 -138 0 -145 35 -145 l28 0 0 -308 0 -308 -34 -34 c-64 -62 -73 -170
-21 -247 20 -31 104 -83 133 -83 6 0 17 -21 23 -46 24 -96 24 -120 -4 -189
-48 -120 -39 -256 27 -394 25 -53 55 -90 152 -186 292 -288 373 -356 461 -386
22 -7 46 -18 53 -23 7 -5 58 -11 112 -12 168 -5 245 27 372 158 96 97 110 129
89 199 -13 43 -23 53 -391 399 -174 164 -202 190 -370 350 -78 74 -158 143
-178 152 -67 32 -153 2 -198 -68 -17 -26 -43 -32 -45 -11 -6 62 -5 77 5 77 21
0 77 59 95 101 42 93 3 198 -94 255 -17 9 -18 33 -19 307 l-1 297 33 0 c17 0
32 3 33 8 0 4 2 14 3 22 2 8 6 44 10 80 l7 66 62 -2 c110 -3 162 23 172 85 48
303 281 558 642 702 43 17 88 33 100 35 12 2 34 8 47 14 76 29 277 54 426 54
207 0 350 -23 530 -86 359 -126 614 -374 675 -657 20 -91 24 -99 58 -125 20
-15 44 -19 109 -21 l82 -1 9 -40 c4 -21 9 -59 10 -84 2 -43 4 -45 35 -48 24
-2 32 -8 33 -23 0 -10 0 -129 0 -264 0 -135 0 -260 0 -279 -1 -27 -8 -38 -40
-59 -21 -14 -49 -42 -62 -63 -50 -81 -17 -214 65 -262 28 -16 33 -25 31 -50
-4 -53 -14 -54 -65 -3 -61 61 -106 72 -177 44 -18 -7 -92 -74 -293 -264 -20
-19 -81 -77 -136 -129 -195 -184 -418 -395 -456 -432 -45 -44 -61 -80 -59
-128 2 -44 18 -69 95 -148 115 -120 189 -155 336 -159 125 -3 236 32 325 105
47 37 260 237 360 337 131 130 185 243 187 390 1 92 -9 152 -30 182 -32 46
-35 70 -17 148 16 74 17 75 55 85 142 38 186 228 76 329 l-26 24 0 309 0 308
30 0 30 0 1 68 c1 37 2 76 2 87 0 32 -13 187 -19 220 -64 360 -189 611 -418
840 -172 172 -361 289 -621 384 -75 27 -250 73 -320 84 -16 3 -50 8 -75 12
-25 4 -56 9 -70 12 -33 6 -385 15 -391 10z"/>
<path d="M2050 3199 c-195 -32 -358 -178 -414 -371 -101 -346 174 -772 794
-1230 159 -117 154 -115 196 -83 19 15 41 24 49 21 8 -3 12 0 10 7 -3 7 17 27
44 45 133 90 315 247 457 392 319 328 436 642 334 901 -95 239 -370 376 -620
309 -106 -28 -257 -137 -296 -212 l-15 -29 -36 48 c-69 90 -153 149 -266 187
-56 19 -172 26 -237 15z"/>
<path d="M2893 1505 c0 -8 4 -12 9 -9 5 3 6 10 3 15 -9 13 -12 11 -12 -6z"/>
<path d="M2355 1499 c-3 -4 2 -6 10 -5 21 3 28 13 10 13 -9 0 -18 -4 -20 -8z"/>
<path d="M2414 1502 c4 -3 14 -7 22 -8 9 -1 13 0 10 4 -4 3 -14 7 -22 8 -9 1
-13 0 -10 -4z"/>
<path d="M2655 1499 c-3 -4 2 -6 10 -5 21 3 28 13 10 13 -9 0 -18 -4 -20 -8z"/>
<path d="M2755 1499 c-3 -4 2 -6 10 -5 21 3 28 13 10 13 -9 0 -18 -4 -20 -8z"/>
<path d="M2299 1488 c-5 -18 -6 -38 -1 -34 7 8 12 36 6 36 -2 0 -4 -1 -5 -2z"/>
<path d="M2494 1476 c1 -8 5 -18 8 -22 4 -3 5 1 4 10 -1 8 -5 18 -8 22 -4 3
-5 -1 -4 -10z"/>
<path d="M2155 1470 c-4 -6 -11 -7 -17 -4 -7 4 -8 2 -4 -5 6 -9 11 -9 22 0 14
11 18 19 10 19 -3 0 -8 -5 -11 -10z"/>
<path d="M2595 1459 c-3 -4 2 -6 10 -5 21 3 28 13 10 13 -9 0 -18 -4 -20 -8z"/>
<path d="M2859 1468 c-5 -18 -6 -38 -1 -34 7 8 12 36 6 36 -2 0 -4 -1 -5 -2z"/>
<path d="M2899 1468 c-5 -18 -6 -38 -1 -34 7 8 12 36 6 36 -2 0 -4 -1 -5 -2z"/>
<path d="M2974 1462 c4 -3 14 -7 22 -8 9 -1 13 0 10 4 -4 3 -14 7 -22 8 -9 1
-13 0 -10 -4z"/>
<path d="M2333 1425 c0 -8 4 -12 9 -9 5 3 6 10 3 15 -9 13 -12 11 -12 -6z"/>
<path d="M2415 1419 c-3 -4 2 -6 10 -5 21 3 28 13 10 13 -9 0 -18 -4 -20 -8z"/>
<path d="M2646 1418 c3 -5 10 -6 15 -3 13 9 11 12 -6 12 -8 0 -12 -4 -9 -9z"/>
<path d="M2695 1420 c-3 -5 -1 -10 4 -10 6 0 11 5 11 10 0 6 -2 10 -4 10 -3 0
-8 -4 -11 -10z"/>
<path d="M2726 1418 c3 -5 10 -6 15 -3 13 9 11 12 -6 12 -8 0 -12 -4 -9 -9z"/>
</g>
</svg>
