<svg xmlns="http://www.w3.org/2000/svg" viewBox="0 0 260 260"><path d="M218.8,152.47a9.92,9.92,0,0,0-4.51-8.23V113.11h1.93c0-8-1.07-31-17.57-51.3-23.46-28.78-59.38-29-69-29-9.37-.05-46.08-.23-70,29C43.12,82,41.91,105,41.87,113.11H43.8v31.13a9.68,9.68,0,0,0,4.36,17.83,29.63,29.63,0,0,1,1.77,9.11c-.06.07-.1.15-.16.22l.13,0c-.37.61-.71,1.2-1,1.77-3.84,8.9-1.38,20.26,6.75,28l16.47,15.57c10.15,9.63,25.37,10,34,.89l4.6-5c2.47-2.66,2.13-7-.82-9.79L67.19,162.5c-3-2.76-7.33-2.91-9.8-.26a42.27,42.27,0,0,0-3.93,4.15,8,8,0,0,1-.87-5,9.66,9.66,0,0,0-.4-18.07V113.11h3.3a72.47,72.47,0,0,1,1-9.4l5.36.05c3.69,0,5.67-1.53,6.06-4A38.45,38.45,0,0,1,79.26,77.82,59,59,0,0,1,97.19,65.65a79.12,79.12,0,0,1,39.38-6.2,75.13,75.13,0,0,1,24.14,6.09c9.08,4,16.34,9.41,21.6,16.21a36.36,36.36,0,0,1,7.74,18.16c.25,2.1,2.64,3.82,5.62,3.83,2,0,4,0,6.06,0a71.17,71.17,0,0,1,1,9.37h3.31v30.16a9.66,9.66,0,0,0-.4,18.07,8,8,0,0,1-.74,4.73,40.23,40.23,0,0,0-3.67-3.83c-2.46-2.65-6.84-2.5-9.8.26l-42.67,40.36c-3,2.76-3.29,7.13-.83,9.79l4.61,5c8.61,9.11,23.83,8.74,34-.89L203,201.15c7.49-7.09,10.15-17.27,7.54-25.79l.64.23c-.43-.83-.92-1.63-1.43-2.42s-.88-1.57-1.4-2.4a29.07,29.07,0,0,1,1.74-8.7A9.59,9.59,0,0,0,218.8,152.47Z" style="fill:#713682"/><path d="M177.65,123.83a25.79,25.79,0,0,0-48.33-12.54A25.8,25.8,0,0,0,81,123.91c0,26.19,37.92,52.66,46.61,58.39l1.82,1.27,1.75-1.29C139.93,176.51,177.67,150.11,177.65,123.83Z" style="fill:#713682"/><path d="M142,138.53l-16.47-13.77a2.16,2.16,0,0,0-3.55,1.66V154a2.17,2.17,0,0,0,3.55,1.66L142,141.85A2.17,2.17,0,0,0,142,138.53Z" style="fill:#fff"/></svg>